<?xml version="1.0" encoding="UTF-8" standalone="no"?>
<!-- Created with Inkscape (http://www.inkscape.org/) -->
<svg
   xmlns:svg="http://www.w3.org/2000/svg"
   xmlns="http://www.w3.org/2000/svg"
   xmlns:xlink="http://www.w3.org/1999/xlink"
   version="1.0"
   width="708.66144"
   height="174.12325"
   id="svg4320">
  <defs
     id="defs4322">
    <linearGradient
       id="linearGradient5015">
      <stop
         id="stop5017"
         style="stop-color:#000000;stop-opacity:1"
         offset="0" />
      <stop
         id="stop5019"
         style="stop-color:#000000;stop-opacity:0"
         offset="1" />
    </linearGradient>
    <clipPath
       id="clp22">
<path
   d="M 0,8.9314 L 0,0 L 1,0 L 1,8.9314"
   id="path947" />

</clipPath>
    <clipPath
       id="clp21">
<path
   d="M 1064.1,42.561 L 1156.5,42.561 L 1156.5,76.736 L 1064.1,76.736 L 1064.1,42.561 z"
   id="path939" />

</clipPath>
    <linearGradient
       x1="1066.9561"
       y1="66.170547"
       x2="1152.9564"
       y2="66.170547"
       id="linearGradient5021"
       xlink:href="#linearGradient5015"
       gradientUnits="userSpaceOnUse" />
  </defs>
  <g
     transform="translate(-296.25196,-371.44668)"
     id="layer1">
    <g
       transform="matrix(1.2499487,0,0,-1.2499487,-1037.3884,615.07198)"
       id="q69"
       style="font-size:14px;letter-spacing:0.41999999;word-spacing:0;fill:#ffffff;fill-rule:nonzero;stroke:none;stroke-width:3;stroke-linecap:butt;stroke-linejoin:miter;stroke-miterlimit:10;stroke-dasharray:none;font-family:fnt1">
<clipPath
   id="clipPath4333">
<path
   d="M 1064.1,42.561 L 1156.5,42.561 L 1156.5,76.736 L 1064.1,76.736 L 1064.1,42.561 z"
   id="path4335" />

</clipPath>

<g
   id="g5023">
  <g
     transform="matrix(6.592446,0,0,6.592446,-5966.8944,-310.9697)"
     clip-path="url(#clp21)"
     id="g941"
     style="fill:#000000;fill-opacity:1;stroke:none;stroke-opacity:1">
<g
   id="q70"
   style="fill:#000000;fill-opacity:1;stroke:none;stroke-opacity:1">
<g
   transform="matrix(86.00031,0,0,21.13283,1066.9561,55.6051)"
   id="xfrm71"
   style="fill:#000000;fill-opacity:1;stroke:none;stroke-opacity:1">
<g
   id="q72"
   style="fill:#000000;fill-opacity:1;stroke:none;stroke-opacity:1">
<clipPath
   id="clipPath4341">
<path
   d="M 0,8.9314 L 0,0 L 1,0 L 1,8.9314"
   id="path4343"
   style="stroke:url(#linearGradient5021)" />

</clipPath>

<g
   clip-path="url(#clp22)"
   id="g949"
   style="fill:#000000;fill-opacity:1;stroke:none;stroke-opacity:1">
<path
   d="M 0.0884,5.2594 C 0.0884,5.2299 0.0826,5.206 0.0753,5.206 L 0.0136,5.206 C 0.0064,5.206 0.0005,5.2299 0.0005,5.2594 L 0.0005,6.0325 C 0.0005,6.062 0.0064,6.0859 0.0136,6.0859 L 0.0753,6.0859 C 0.0826,6.0859 0.0884,6.062 0.0884,6.0325 L 0.0884,5.2594"
   id="path951"
   style="fill:#000000;fill-opacity:1;fill-rule:nonzero;stroke:none;stroke-opacity:1" />

<path
   d="M 0.4353,5.8125 C 0.4353,5.8395 0.4406,5.8614 0.4473,5.8614 C 0.4473,5.8614 0.4473,5.8614 0.4473,5.8614 L 0.5214,5.8614 C 0.5286,5.8614 0.5345,5.8853 0.5345,5.9149 L 0.5345,6.0321 C 0.5345,6.0617 0.5286,6.0855 0.5214,6.0855 L 0.4003,6.0855 C 0.3995,6.0858 0.3986,6.086 0.3978,6.086 C 0.3735,6.086 0.3538,6.0068 0.3532,5.9085 L 0.3532,5.9085 L 0.3532,5.3898 L 0.3532,5.3898 C 0.3532,5.389 0.3532,5.3884 0.3532,5.3876 C 0.3532,5.2875 0.3731,5.2064 0.3976,5.206 C 0.3976,5.206 0.3975,5.2058 0.3975,5.2057 L 0.5214,5.2057 C 0.5286,5.2057 0.5345,5.2296 0.5345,5.2591 L 0.5345,5.3764 C 0.5345,5.4059 0.5286,5.4298 0.5214,5.4298 L 0.4466,5.4298 C 0.4403,5.4312 0.4353,5.4523 0.4353,5.4784 C 0.4353,5.4787 0.4353,5.4788 0.4353,5.4791 L 0.4353,5.5503 L 0.4996,5.5503 C 0.5069,5.5503 0.5128,5.5743 0.5128,5.6037 L 0.5128,5.6923 C 0.5128,5.7218 0.5069,5.7458 0.4996,5.7458 L 0.4353,5.7458 L 0.4353,5.8122 C 0.4353,5.8123 0.4353,5.8124 0.4353,5.8125"
   id="path953"
   style="fill:#000000;fill-opacity:1;fill-rule:nonzero;stroke:none;stroke-opacity:1" />

<path
   d="M 0.327,6.0853 C 0.327,6.0853 0.2987,6.0853 0.2892,6.0853 C 0.2798,6.0853 0.278,6.0497 0.278,6.0497 L 0.2446,5.4782 C 0.2446,5.4782 0.2436,5.4537 0.2395,5.453 C 0.2346,5.4522 0.2337,5.4737 0.2337,5.4737 L 0.2009,6.0419 C 0.2009,6.0423 0.2009,6.0427 0.2008,6.0431 C 0.1997,6.0675 0.1945,6.086 0.1881,6.086 C 0.181,6.086 0.1298,6.0859 0.1236,6.0859 C 0.1165,6.0859 0.1107,6.0622 0.1107,6.0331 C 0.1107,6.0298 0.1108,6.0267 0.1109,6.0236 C 0.1109,6.023 0.1109,6.0223 0.1109,6.0223 L 0.1567,5.3297 C 0.1573,5.3222 0.1587,5.3066 0.1596,5.3003 C 0.1667,5.2443 0.1809,5.2058 0.1975,5.2058 C 0.2078,5.2058 0.2416,5.2058 0.252,5.2058 C 0.2708,5.2058 0.2867,5.2554 0.2923,5.3241 C 0.2926,5.3268 0.2936,5.343 0.2936,5.343 C 0.2936,5.343 0.334,5.9786 0.3366,6.0245 C 0.34,6.082 0.327,6.0853 0.327,6.0853"
   id="path955"
   style="fill:#000000;fill-opacity:1;fill-rule:nonzero;stroke:none;stroke-opacity:1" />

<path
   d="M 0.6649,5.8614 L 0.722,5.8614 C 0.7292,5.8614 0.7351,5.8853 0.7351,5.9149 L 0.7351,6.0321 C 0.7351,6.0617 0.7292,6.0855 0.722,6.0855 L 0.6455,6.0855 C 0.6451,6.0857 0.6447,6.0859 0.6442,6.0859 C 0.6436,6.0859 0.643,6.0856 0.6424,6.0855 L 0.641,6.0855 C 0.6402,6.0855 0.639,6.0852 0.6376,6.0846 C 0.5884,6.0707 0.5495,5.9091 0.5495,5.705 C 0.5491,5.6575 0.5488,5.6332 0.5492,5.5932 C 0.5492,5.3828 0.5908,5.2106 0.6422,5.2064 C 0.643,5.2062 0.6436,5.206 0.6442,5.206 L 0.722,5.206 C 0.7292,5.206 0.7351,5.2299 0.7351,5.2594 L 0.7351,5.3749 C 0.7351,5.4044 0.7292,5.4283 0.722,5.4283 L 0.6656,5.4283 C 0.6502,5.4321 0.6413,5.4713 0.6386,5.5338 C 0.6375,5.5611 0.6366,5.5885 0.6363,5.6408 C 0.636,5.7003 0.6369,5.7276 0.638,5.7526 C 0.6409,5.814 0.6499,5.8563 0.6649,5.8614"
   id="path957"
   style="fill:#000000;fill-opacity:1;fill-rule:nonzero;stroke:none;stroke-opacity:1" />

<path
   d="M 1,5.6648 C 1,5.6656 1,5.6663 1,5.6672 C 0.998,6.0269 0.9474,6.0689 0.9233,6.0866 C 0.8622,6.1316 0.8161,6.0802 0.8106,6.0729 C 0.7835,6.0372 0.7477,5.974 0.7472,5.651 C 0.7472,5.649 0.7472,5.6472 0.7472,5.6452 C 0.7472,5.6431 0.7472,5.6413 0.7472,5.6393 C 0.7471,5.3565 0.7833,5.2572 0.8072,5.2224 C 0.8101,5.2168 0.8145,5.212 0.8201,5.208 C 0.822,5.2065 0.8236,5.2055 0.8249,5.2049 C 0.8504,5.1899 0.8932,5.1886 0.9206,5.2048 C 0.9235,5.206 0.9279,5.2088 0.9334,5.2149 C 0.9352,5.2168 0.9369,5.2189 0.9384,5.2211 C 0.9623,5.2538 0.9982,5.3487 1,5.6231 C 1,5.624 1,5.6247 1,5.6256 C 1,5.6319 1,5.6386 1,5.6452 C 1,5.6517 1,5.6584 1,5.6648 z M 0.834,5.7719 C 0.834,5.7719 0.8345,5.7872 0.837,5.8107 C 0.8409,5.8395 0.8509,5.8761 0.8744,5.8768 C 0.9118,5.8777 0.9138,5.7728 0.9138,5.7728 C 0.9139,5.7683 0.914,5.7637 0.9142,5.7591 C 0.9147,5.7372 0.9156,5.6988 0.9157,5.6507 C 0.9156,5.6026 0.9149,5.561 0.9144,5.5392 C 0.9143,5.5346 0.9139,5.5272 0.9138,5.5227 C 0.9138,5.5227 0.9118,5.4178 0.8744,5.4188 C 0.8509,5.4194 0.8411,5.4582 0.837,5.4848 C 0.8346,5.5048 0.8335,5.5293 0.8335,5.5293 C 0.8313,5.5861 0.8316,5.6087 0.8314,5.6465 C 0.8313,5.6983 0.8321,5.7299 0.834,5.7719"
   id="path959"
   style="fill:#000000;fill-opacity:1;fill-rule:nonzero;stroke:none;stroke-opacity:1" />

<path
   d="M 0.0556,4.7688 L 0.047,4.7688 L 0.047,4.9577 L 0.0468,4.9577 L 0.0285,4.8638 L 0.0271,4.8638 L 0.0087,4.9577 L 0.0086,4.9577 L 0.0086,4.7688 L 0,4.7688 L 0,5.0114 L 0.008,5.0114 L 0.0278,4.9118 L 0.0476,5.0114 L 0.0556,5.0114 L 0.0556,4.7688"
   id="path961"
   style="fill:#000000;fill-opacity:1;fill-rule:nonzero;stroke:none;stroke-opacity:1" />

<path
   d="M 0.1009,4.7781 C 0.0973,4.7685 0.0959,4.7657 0.0934,4.7657 C 0.09,4.7657 0.0882,4.7706 0.0875,4.782 C 0.0841,4.771 0.0805,4.7657 0.0769,4.7657 C 0.0711,4.7657 0.0673,4.7842 0.0673,4.8048 C 0.0673,4.8364 0.0744,4.846 0.0807,4.8553 L 0.0876,4.8653 L 0.0876,4.8738 C 0.0876,4.8937 0.0852,4.9019 0.0805,4.9019 C 0.0762,4.9019 0.0718,4.8937 0.0681,4.8756 L 0.0681,4.9101 C 0.0711,4.9247 0.0754,4.9318 0.0811,4.9318 C 0.089,4.9318 0.0953,4.9154 0.0953,4.8791 L 0.0953,4.7969 C 0.0953,4.7909 0.0959,4.7888 0.0968,4.7888 C 0.0976,4.7888 0.0992,4.792 0.1009,4.7973 L 0.1009,4.7781 z M 0.0876,4.8478 C 0.0809,4.8386 0.0751,4.8293 0.0751,4.8105 C 0.0751,4.7973 0.0775,4.7881 0.0807,4.7881 C 0.0832,4.7881 0.0855,4.793 0.0876,4.8012 L 0.0876,4.8478"
   id="path963"
   style="fill:#000000;fill-opacity:1;fill-rule:nonzero;stroke:none;stroke-opacity:1" />

<path
   d="M 0.1151,4.9581 C 0.1125,4.9581 0.1105,4.9666 0.1105,4.9769 C 0.1105,4.9873 0.1125,4.9958 0.1151,4.9958 C 0.1176,4.9958 0.1197,4.9873 0.1197,4.9769 C 0.1197,4.9666 0.1176,4.9581 0.1151,4.9581 z M 0.1189,4.7688 L 0.1112,4.7688 L 0.1112,4.9286 L 0.1189,4.9286 L 0.1189,4.7688"
   id="path965"
   style="fill:#000000;fill-opacity:1;fill-rule:nonzero;stroke:none;stroke-opacity:1" />

<path
   d="M 0.1561,4.8873 C 0.1517,4.899 0.1476,4.904 0.1447,4.904 C 0.1416,4.904 0.1395,4.898 0.1395,4.8894 C 0.1395,4.8823 0.1422,4.8738 0.1491,4.8574 C 0.1555,4.84 0.1579,4.829 0.1579,4.8126 C 0.1579,4.7845 0.1524,4.7657 0.145,4.7657 C 0.1402,4.7657 0.1364,4.7696 0.1313,4.7802 L 0.1313,4.8144 C 0.1364,4.8002 0.141,4.7934 0.1442,4.7934 C 0.1473,4.7941 0.1499,4.8002 0.1499,4.8115 C 0.1499,4.8336 0.1316,4.8453 0.1316,4.8884 C 0.1316,4.9154 0.1367,4.9318 0.1445,4.9318 C 0.1482,4.9318 0.152,4.9275 0.1561,4.9186 L 0.1561,4.8873"
   id="path967"
   style="fill:#000000;fill-opacity:1;fill-rule:nonzero;stroke:none;stroke-opacity:1" />

<path
   d="M 0.2178,4.9805 C 0.2165,4.9826 0.2157,4.9833 0.2143,4.9833 C 0.2081,4.9833 0.206,4.9684 0.206,4.9439 L 0.206,4.9286 L 0.2131,4.9286 L 0.2131,4.9001 L 0.206,4.9001 L 0.206,4.7688 L 0.1983,4.7688 L 0.1983,4.9001 L 0.1928,4.9001 L 0.1928,4.9286 L 0.1983,4.9286 L 0.1983,4.9403 C 0.1983,4.9716 0.2001,4.9866 0.2033,4.9994 C 0.2066,5.0129 0.211,5.0193 0.2178,5.0114 L 0.2178,4.9805"
   id="path969"
   style="fill:#000000;fill-opacity:1;fill-rule:nonzero;stroke:none;stroke-opacity:1" />

<path
   d="M 0.2612,4.8503 C 0.2612,4.7998 0.2526,4.7657 0.24,4.7657 C 0.2279,4.7657 0.2193,4.8012 0.2193,4.8503 C 0.2193,4.8962 0.2283,4.9318 0.24,4.9318 C 0.2523,4.9318 0.2612,4.8976 0.2612,4.8503 z M 0.2272,4.8503 C 0.2272,4.8165 0.2324,4.7941 0.2399,4.7941 C 0.2481,4.7941 0.2533,4.8154 0.2533,4.85 C 0.2533,4.8809 0.2477,4.9033 0.2399,4.9033 C 0.2325,4.9033 0.2272,4.8809 0.2272,4.8503"
   id="path971"
   style="fill:#000000;fill-opacity:1;fill-rule:nonzero;stroke:none;stroke-opacity:1" />

<path
   d="M 0.2813,4.9286 L 0.2813,4.8919 L 0.2815,4.8919 C 0.2854,4.92 0.2892,4.9318 0.2928,4.9318 C 0.296,4.9318 0.299,4.9257 0.3022,4.9133 L 0.2981,4.8859 C 0.2957,4.8951 0.2927,4.9015 0.2908,4.9015 C 0.2855,4.9015 0.2813,4.8798 0.2813,4.8524 L 0.2813,4.7688 L 0.2735,4.7688 L 0.2735,4.9286 L 0.2813,4.9286"
   id="path973"
   style="fill:#000000;fill-opacity:1;fill-rule:nonzero;stroke:none;stroke-opacity:1" />

<path
   d="M 0.3405,4.7749 C 0.3378,4.7699 0.3329,4.7657 0.3281,4.7657 L 0.3277,4.7607 C 0.3306,4.7575 0.3324,4.7493 0.3324,4.7383 C 0.3324,4.7116 0.3266,4.702 0.3189,4.7066 L 0.3189,4.7262 C 0.323,4.7237 0.3262,4.7272 0.3262,4.7354 C 0.3262,4.7415 0.3245,4.7457 0.3211,4.7443 L 0.3232,4.7685 C 0.3146,4.777 0.3088,4.8066 0.3088,4.8457 C 0.3088,4.8983 0.3163,4.9318 0.3282,4.9318 C 0.3328,4.9318 0.3358,4.9275 0.3396,4.9207 L 0.3396,4.8869 C 0.3351,4.899 0.3322,4.9026 0.3288,4.9026 C 0.3217,4.9026 0.3168,4.8809 0.3168,4.8485 C 0.3168,4.8154 0.322,4.7955 0.3301,4.7955 C 0.3334,4.7955 0.3365,4.7991 0.3405,4.8062 L 0.3405,4.7749"
   id="path975"
   style="fill:#000000;fill-opacity:1;fill-rule:nonzero;stroke:none;stroke-opacity:1" />

<path
   d="M 0.3826,4.7781 C 0.379,4.7685 0.3775,4.7657 0.3751,4.7657 C 0.3717,4.7657 0.3698,4.7706 0.3691,4.782 C 0.3657,4.771 0.3621,4.7657 0.3585,4.7657 C 0.3528,4.7657 0.3489,4.7842 0.3489,4.8048 C 0.3489,4.8364 0.356,4.846 0.3623,4.8553 L 0.3692,4.8653 L 0.3692,4.8738 C 0.3692,4.8937 0.3669,4.9019 0.3621,4.9019 C 0.3578,4.9019 0.3535,4.8937 0.3497,4.8756 L 0.3497,4.9101 C 0.3528,4.9247 0.3571,4.9318 0.3627,4.9318 C 0.3707,4.9318 0.377,4.9154 0.377,4.8791 L 0.377,4.7969 C 0.377,4.7909 0.3775,4.7888 0.3785,4.7888 C 0.3793,4.7888 0.3808,4.792 0.3826,4.7973 L 0.3826,4.7781 z M 0.3692,4.8478 C 0.3626,4.8386 0.3568,4.8293 0.3568,4.8105 C 0.3568,4.7973 0.3592,4.7881 0.3624,4.7881 C 0.3648,4.7881 0.3671,4.793 0.3692,4.8012 L 0.3692,4.8478"
   id="path977"
   style="fill:#000000;fill-opacity:1;fill-rule:nonzero;stroke:none;stroke-opacity:1" />

<path
   d="M 0.3923,4.7336 C 0.3952,4.7415 0.3962,4.7596 0.3954,4.7724 C 0.3929,4.7728 0.3911,4.7806 0.3911,4.7923 C 0.3911,4.8041 0.3933,4.8126 0.3963,4.8126 C 0.4001,4.8126 0.4025,4.7991 0.4025,4.7781 C 0.4025,4.7578 0.3992,4.7347 0.3923,4.7269 L 0.3923,4.7336"
   id="path979"
   style="fill:#000000;fill-opacity:1;fill-rule:nonzero;stroke:none;stroke-opacity:1" />

<path
   d="M 0.4411,4.9286 L 0.4411,4.9076 C 0.4451,4.9239 0.4488,4.9318 0.4525,4.9318 C 0.4575,4.9318 0.4616,4.9218 0.4642,4.903 C 0.4676,4.9186 0.4717,4.9318 0.4773,4.9318 C 0.4853,4.9318 0.4903,4.9069 0.4903,4.8692 L 0.4903,4.7688 L 0.4826,4.7688 L 0.4826,4.8677 C 0.4826,4.8919 0.4789,4.9051 0.4744,4.9051 C 0.4719,4.9054 0.4685,4.8965 0.4657,4.8848 L 0.4657,4.7688 L 0.4579,4.7688 L 0.4579,4.8681 C 0.4579,4.8941 0.4547,4.9051 0.4508,4.9051 C 0.4469,4.9051 0.4443,4.9001 0.4411,4.8848 L 0.4411,4.7688 L 0.4333,4.7688 L 0.4333,4.9286 L 0.4411,4.9286"
   id="path981"
   style="fill:#000000;fill-opacity:1;fill-rule:nonzero;stroke:none;stroke-opacity:1" />

<path
   d="M 0.5345,4.7781 C 0.531,4.7685 0.5295,4.7657 0.527,4.7657 C 0.5236,4.7657 0.5218,4.7706 0.5211,4.782 C 0.5177,4.771 0.5141,4.7657 0.5105,4.7657 C 0.5048,4.7657 0.5009,4.7842 0.5009,4.8048 C 0.5009,4.8364 0.508,4.846 0.5143,4.8553 L 0.5212,4.8653 L 0.5212,4.8738 C 0.5212,4.8937 0.5188,4.9019 0.5141,4.9019 C 0.5098,4.9019 0.5054,4.8937 0.5017,4.8756 L 0.5017,4.9101 C 0.5048,4.9247 0.509,4.9318 0.5147,4.9318 C 0.5227,4.9318 0.529,4.9154 0.529,4.8791 L 0.529,4.7969 C 0.529,4.7909 0.5295,4.7888 0.5304,4.7888 C 0.5312,4.7888 0.5328,4.792 0.5345,4.7973 L 0.5345,4.7781 z M 0.5212,4.8478 C 0.5145,4.8386 0.5088,4.8293 0.5088,4.8105 C 0.5088,4.7973 0.5111,4.7881 0.5144,4.7881 C 0.5168,4.7881 0.5191,4.793 0.5212,4.8012 L 0.5212,4.8478"
   id="path983"
   style="fill:#000000;fill-opacity:1;fill-rule:nonzero;stroke:none;stroke-opacity:1" />

<path
   d="M 0.5487,4.9581 C 0.5462,4.9581 0.5441,4.9666 0.5441,4.9769 C 0.5441,4.9873 0.5462,4.9958 0.5487,4.9958 C 0.5512,4.9958 0.5533,4.9873 0.5533,4.9769 C 0.5533,4.9666 0.5512,4.9581 0.5487,4.9581 z M 0.5525,4.7688 L 0.5448,4.7688 L 0.5448,4.9286 L 0.5525,4.9286 L 0.5525,4.7688"
   id="path985"
   style="fill:#000000;fill-opacity:1;fill-rule:nonzero;stroke:none;stroke-opacity:1" />

<path
   d="M 0.5897,4.8873 C 0.5853,4.899 0.5812,4.904 0.5783,4.904 C 0.5752,4.904 0.5732,4.898 0.5732,4.8894 C 0.5732,4.8823 0.5758,4.8738 0.5827,4.8574 C 0.5892,4.84 0.5915,4.829 0.5915,4.8126 C 0.5915,4.7845 0.586,4.7657 0.5786,4.7657 C 0.5738,4.7657 0.57,4.7696 0.565,4.7802 L 0.565,4.8144 C 0.57,4.8002 0.5747,4.7934 0.5778,4.7934 C 0.5809,4.7941 0.5836,4.8002 0.5836,4.8115 C 0.5836,4.8336 0.5652,4.8453 0.5652,4.8884 C 0.5652,4.9154 0.5703,4.9318 0.5782,4.9318 C 0.5818,4.9318 0.5856,4.9275 0.5897,4.9186 L 0.5897,4.8873"
   id="path987"
   style="fill:#000000;fill-opacity:1;fill-rule:nonzero;stroke:none;stroke-opacity:1" />

<path
   d="M 0.6599,4.8869 C 0.6555,4.899 0.6525,4.9026 0.6491,4.9026 C 0.642,4.9026 0.6371,4.8809 0.6371,4.8485 C 0.6371,4.8154 0.6424,4.7955 0.6504,4.7955 C 0.6537,4.7955 0.6569,4.7991 0.6608,4.8062 L 0.6608,4.7749 C 0.6582,4.7699 0.6532,4.7657 0.6491,4.7657 C 0.6374,4.7657 0.6292,4.7987 0.6292,4.8457 C 0.6292,4.8983 0.6367,4.9318 0.6486,4.9318 C 0.6531,4.9318 0.6562,4.9275 0.6599,4.9207 L 0.6599,4.8869"
   id="path989"
   style="fill:#000000;fill-opacity:1;fill-rule:nonzero;stroke:none;stroke-opacity:1" />

<path
   d="M 0.7121,4.8503 C 0.7121,4.7998 0.7035,4.7657 0.6909,4.7657 C 0.6788,4.7657 0.6702,4.8012 0.6702,4.8503 C 0.6702,4.8962 0.6792,4.9318 0.6909,4.9318 C 0.7032,4.9318 0.7121,4.8976 0.7121,4.8503 z M 0.6781,4.8503 C 0.6781,4.8165 0.6833,4.7941 0.6908,4.7941 C 0.699,4.7941 0.7042,4.8154 0.7042,4.85 C 0.7042,4.8809 0.6986,4.9033 0.6908,4.9033 C 0.6835,4.9033 0.6781,4.8809 0.6781,4.8503"
   id="path991"
   style="fill:#000000;fill-opacity:1;fill-rule:nonzero;stroke:none;stroke-opacity:1" />

<path
   d="M 0.7315,4.9076 L 0.7317,4.9076 C 0.7347,4.9229 0.739,4.9318 0.7434,4.9318 C 0.7508,4.9318 0.7568,4.9111 0.7568,4.8674 L 0.7568,4.7688 L 0.749,4.7688 L 0.749,4.8677 C 0.749,4.8912 0.746,4.9065 0.7413,4.9065 C 0.7379,4.9065 0.7352,4.9001 0.7315,4.8834 L 0.7315,4.7688 L 0.7237,4.7688 L 0.7237,4.9286 L 0.7315,4.9286 L 0.7315,4.9076"
   id="path993"
   style="fill:#000000;fill-opacity:1;fill-rule:nonzero;stroke:none;stroke-opacity:1" />

<path
   d="M 0.7911,4.9805 C 0.7898,4.9826 0.789,4.9833 0.7876,4.9833 C 0.7813,4.9833 0.7793,4.9684 0.7793,4.9439 L 0.7793,4.9286 L 0.7864,4.9286 L 0.7864,4.9001 L 0.7793,4.9001 L 0.7793,4.7688 L 0.7715,4.7688 L 0.7715,4.9001 L 0.766,4.9001 L 0.766,4.9286 L 0.7715,4.9286 L 0.7715,4.9403 C 0.7715,4.9716 0.7734,4.9866 0.7765,4.9994 C 0.7798,5.0129 0.7843,5.0193 0.7911,5.0114 L 0.7911,4.9805"
   id="path995"
   style="fill:#000000;fill-opacity:1;fill-rule:nonzero;stroke:none;stroke-opacity:1" />

<path
   d="M 0.7998,4.9581 C 0.7973,4.9581 0.7952,4.9666 0.7952,4.9769 C 0.7952,4.9873 0.7973,4.9958 0.7998,4.9958 C 0.8024,4.9958 0.8045,4.9873 0.8045,4.9769 C 0.8045,4.9666 0.8024,4.9581 0.7998,4.9581 z M 0.8037,4.7688 L 0.7959,4.7688 L 0.7959,4.9286 L 0.8037,4.9286 L 0.8037,4.7688"
   id="path997"
   style="fill:#000000;fill-opacity:1;fill-rule:nonzero;stroke:none;stroke-opacity:1" />

<path
   d="M 0.8484,4.7781 C 0.8448,4.7685 0.8434,4.7657 0.8409,4.7657 C 0.8375,4.7657 0.8357,4.7706 0.835,4.782 C 0.8316,4.771 0.828,4.7657 0.8244,4.7657 C 0.8186,4.7657 0.8148,4.7842 0.8148,4.8048 C 0.8148,4.8364 0.8219,4.846 0.8282,4.8553 L 0.8351,4.8653 L 0.8351,4.8738 C 0.8351,4.8937 0.8327,4.9019 0.828,4.9019 C 0.8237,4.9019 0.8193,4.8937 0.8156,4.8756 L 0.8156,4.9101 C 0.8186,4.9247 0.8229,4.9318 0.8286,4.9318 C 0.8365,4.9318 0.8428,4.9154 0.8428,4.8791 L 0.8428,4.7969 C 0.8428,4.7909 0.8434,4.7888 0.8443,4.7888 C 0.8451,4.7888 0.8467,4.792 0.8484,4.7973 L 0.8484,4.7781 z M 0.8351,4.8478 C 0.8284,4.8386 0.8226,4.8293 0.8226,4.8105 C 0.8226,4.7973 0.825,4.7881 0.8282,4.7881 C 0.8307,4.7881 0.833,4.793 0.8351,4.8012 L 0.8351,4.8478"
   id="path999"
   style="fill:#000000;fill-opacity:1;fill-rule:nonzero;stroke:none;stroke-opacity:1" />

<path
   d="M 0.8661,4.9076 L 0.8663,4.9076 C 0.8692,4.9229 0.8736,4.9318 0.878,4.9318 C 0.8854,4.9318 0.8913,4.9111 0.8913,4.8674 L 0.8913,4.7688 L 0.8836,4.7688 L 0.8836,4.8677 C 0.8836,4.8912 0.8806,4.9065 0.8759,4.9065 C 0.8725,4.9065 0.8697,4.9001 0.8661,4.8834 L 0.8661,4.7688 L 0.8583,4.7688 L 0.8583,4.9286 L 0.8661,4.9286 L 0.8661,4.9076"
   id="path1001"
   style="fill:#000000;fill-opacity:1;fill-rule:nonzero;stroke:none;stroke-opacity:1" />

<path
   d="M 0.935,4.7749 C 0.9324,4.7699 0.9274,4.7657 0.9226,4.7657 L 0.9223,4.7607 C 0.9251,4.7575 0.927,4.7493 0.927,4.7383 C 0.927,4.7116 0.9211,4.702 0.9134,4.7066 L 0.9134,4.7262 C 0.9175,4.7237 0.9208,4.7272 0.9208,4.7354 C 0.9208,4.7415 0.919,4.7457 0.9157,4.7443 L 0.9178,4.7685 C 0.9092,4.777 0.9034,4.8066 0.9034,4.8457 C 0.9034,4.8983 0.9109,4.9318 0.9228,4.9318 C 0.9273,4.9318 0.9304,4.9275 0.9341,4.9207 L 0.9341,4.8869 C 0.9297,4.899 0.9267,4.9026 0.9233,4.9026 C 0.9162,4.9026 0.9113,4.8809 0.9113,4.8485 C 0.9113,4.8154 0.9166,4.7955 0.9246,4.7955 C 0.9279,4.7955 0.9311,4.7991 0.935,4.8062 L 0.935,4.7749"
   id="path1003"
   style="fill:#000000;fill-opacity:1;fill-rule:nonzero;stroke:none;stroke-opacity:1" />

<path
   d="M 0.9771,4.7781 C 0.9736,4.7685 0.9721,4.7657 0.9696,4.7657 C 0.9662,4.7657 0.9644,4.7706 0.9637,4.782 C 0.9603,4.771 0.9567,4.7657 0.9531,4.7657 C 0.9473,4.7657 0.9435,4.7842 0.9435,4.8048 C 0.9435,4.8364 0.9506,4.846 0.9569,4.8553 L 0.9638,4.8653 L 0.9638,4.8738 C 0.9638,4.8937 0.9614,4.9019 0.9567,4.9019 C 0.9524,4.9019 0.948,4.8937 0.9443,4.8756 L 0.9443,4.9101 C 0.9473,4.9247 0.9516,4.9318 0.9573,4.9318 C 0.9653,4.9318 0.9715,4.9154 0.9715,4.8791 L 0.9715,4.7969 C 0.9715,4.7909 0.9721,4.7888 0.973,4.7888 C 0.9738,4.7888 0.9754,4.792 0.9771,4.7973 L 0.9771,4.7781 z M 0.9638,4.8478 C 0.9571,4.8386 0.9514,4.8293 0.9514,4.8105 C 0.9514,4.7973 0.9537,4.7881 0.957,4.7881 C 0.9594,4.7881 0.9617,4.793 0.9638,4.8012 L 0.9638,4.8478"
   id="path1005"
   style="fill:#000000;fill-opacity:1;fill-rule:nonzero;stroke:none;stroke-opacity:1" />

<path
   d="M 0.9965,4.787 C 0.9965,4.7753 0.9941,4.7657 0.9912,4.7657 C 0.9883,4.7657 0.986,4.7753 0.986,4.787 C 0.986,4.7987 0.9883,4.8083 0.9912,4.8083 C 0.9941,4.8083 0.9965,4.7987 0.9965,4.787"
   id="path1007"
   style="fill:#000000;fill-opacity:1;fill-rule:nonzero;stroke:none;stroke-opacity:1" />

<path
   d="M 0.0884,0.0662 C 0.0884,0.0367 0.0826,0.0128 0.0753,0.0128 L 0.0136,0.0128 C 0.0064,0.0128 0.0005,0.0367 0.0005,0.0662 L 0.0005,0.8393 C 0.0005,0.8688 0.0064,0.8928 0.0136,0.8928 L 0.0753,0.8928 C 0.0826,0.8928 0.0884,0.8688 0.0884,0.8393 L 0.0884,0.0662"
   id="path1009"
   style="fill:#000000;fill-opacity:1;fill-rule:nonzero;stroke:none;stroke-opacity:1" />

<path
   d="M 0.4353,0.6193 C 0.4353,0.6463 0.4406,0.6682 0.4473,0.6682 C 0.4473,0.6682 0.4473,0.6683 0.4473,0.6683 L 0.5214,0.6683 C 0.5286,0.6683 0.5345,0.6922 0.5345,0.7217 L 0.5345,0.839 C 0.5345,0.8685 0.5286,0.8924 0.5214,0.8924 L 0.4003,0.8924 C 0.3995,0.8926 0.3986,0.8928 0.3978,0.8928 C 0.3735,0.8928 0.3538,0.8137 0.3532,0.7153 L 0.3532,0.7153 L 0.3532,0.1966 L 0.3532,0.1966 C 0.3532,0.1958 0.3532,0.1952 0.3532,0.1944 C 0.3532,0.0943 0.3731,0.0132 0.3976,0.0129 C 0.3976,0.0128 0.3975,0.0126 0.3975,0.0125 L 0.5214,0.0125 C 0.5286,0.0125 0.5345,0.0364 0.5345,0.0659 L 0.5345,0.1832 C 0.5345,0.2127 0.5286,0.2366 0.5214,0.2366 L 0.4466,0.2366 C 0.4403,0.238 0.4353,0.2591 0.4353,0.2853 C 0.4353,0.2855 0.4353,0.2856 0.4353,0.2859 L 0.4353,0.3571 L 0.4996,0.3571 C 0.5069,0.3571 0.5128,0.3811 0.5128,0.4105 L 0.5128,0.4992 C 0.5128,0.5287 0.5069,0.5526 0.4996,0.5526 L 0.4353,0.5526 L 0.4353,0.619 C 0.4353,0.6192 0.4353,0.6192 0.4353,0.6193"
   id="path1011"
   style="fill:#000000;fill-opacity:1;fill-rule:nonzero;stroke:none;stroke-opacity:1" />

<path
   d="M 0.327,0.8921 C 0.327,0.8921 0.2987,0.8921 0.2892,0.8921 C 0.2798,0.8921 0.278,0.8565 0.278,0.8565 L 0.2446,0.285 C 0.2446,0.285 0.2436,0.2605 0.2395,0.2598 C 0.2346,0.259 0.2337,0.2806 0.2337,0.2806 L 0.2009,0.8487 C 0.2009,0.8491 0.2009,0.8495 0.2008,0.8499 C 0.1997,0.8743 0.1945,0.8928 0.1881,0.8928 C 0.181,0.8928 0.1298,0.8927 0.1236,0.8927 C 0.1165,0.8927 0.1107,0.8691 0.1107,0.8399 C 0.1107,0.8367 0.1108,0.8335 0.1109,0.8304 C 0.1109,0.8298 0.1109,0.8292 0.1109,0.8292 L 0.1567,0.1365 C 0.1573,0.129 0.1587,0.1135 0.1596,0.1071 C 0.1667,0.0511 0.1809,0.0126 0.1975,0.0126 C 0.2078,0.0126 0.2416,0.0126 0.252,0.0126 C 0.2708,0.0126 0.2867,0.0622 0.2923,0.131 C 0.2926,0.1336 0.2936,0.1498 0.2936,0.1498 C 0.2936,0.1498 0.334,0.7854 0.3366,0.8313 C 0.34,0.8888 0.327,0.8921 0.327,0.8921"
   id="path1013"
   style="fill:#000000;fill-opacity:1;fill-rule:nonzero;stroke:none;stroke-opacity:1" />

<path
   d="M 0.6649,0.6683 L 0.722,0.6683 C 0.7292,0.6683 0.7351,0.6922 0.7351,0.7217 L 0.7351,0.839 C 0.7351,0.8685 0.7292,0.8924 0.722,0.8924 L 0.6455,0.8924 C 0.6451,0.8925 0.6447,0.8928 0.6442,0.8928 C 0.6436,0.8928 0.643,0.8924 0.6424,0.8924 L 0.641,0.8924 C 0.6402,0.8924 0.639,0.892 0.6376,0.8914 C 0.5884,0.8775 0.5495,0.7159 0.5495,0.5119 C 0.5491,0.4643 0.5488,0.44 0.5492,0.4 C 0.5492,0.1897 0.5908,0.0175 0.6422,0.0132 C 0.643,0.013 0.6436,0.0128 0.6442,0.0128 L 0.722,0.0128 C 0.7292,0.0128 0.7351,0.0367 0.7351,0.0663 L 0.7351,0.1817 C 0.7351,0.2113 0.7292,0.2352 0.722,0.2352 L 0.6656,0.2352 C 0.6502,0.239 0.6413,0.2781 0.6386,0.3406 C 0.6375,0.3679 0.6366,0.3953 0.6363,0.4476 C 0.636,0.5071 0.6369,0.5345 0.638,0.5594 C 0.6409,0.6208 0.6499,0.6631 0.6649,0.6683"
   id="path1015"
   style="fill:#000000;fill-opacity:1;fill-rule:nonzero;stroke:none;stroke-opacity:1" />

<path
   d="M 1,0.4716 C 1,0.4724 1,0.4732 1,0.474 C 0.998,0.8337 0.9474,0.8757 0.9233,0.8934 C 0.8622,0.9384 0.8161,0.887 0.8106,0.8798 C 0.7835,0.844 0.7477,0.7808 0.7472,0.4578 C 0.7472,0.4559 0.7472,0.454 0.7472,0.452 C 0.7472,0.4499 0.7472,0.4481 0.7472,0.4461 C 0.7471,0.1633 0.7833,0.0641 0.8072,0.0292 C 0.8101,0.0237 0.8145,0.0188 0.8201,0.0148 C 0.822,0.0133 0.8236,0.0124 0.8249,0.0117 C 0.8504,-0.0033 0.8932,-0.0046 0.9206,0.0116 C 0.9235,0.0129 0.9279,0.0156 0.9334,0.0217 C 0.9352,0.0236 0.9369,0.0257 0.9384,0.0279 C 0.9623,0.0607 0.9982,0.1555 1,0.4299 C 1,0.4308 1,0.4315 1,0.4324 C 1,0.4387 1,0.4454 1,0.452 C 1,0.4585 1,0.4652 1,0.4716 z M 0.834,0.5787 C 0.834,0.5787 0.8345,0.5941 0.837,0.6176 C 0.8409,0.6463 0.8509,0.683 0.8744,0.6836 C 0.9118,0.6846 0.9138,0.5797 0.9138,0.5797 C 0.9139,0.5751 0.914,0.5705 0.9142,0.5659 C 0.9147,0.5441 0.9156,0.5057 0.9157,0.4575 C 0.9156,0.4094 0.9149,0.3679 0.9144,0.346 C 0.9143,0.3414 0.9139,0.3341 0.9138,0.3295 C 0.9138,0.3295 0.9118,0.2246 0.8744,0.2256 C 0.8509,0.2263 0.8411,0.265 0.837,0.2916 C 0.8346,0.3116 0.8335,0.3361 0.8335,0.3361 C 0.8313,0.393 0.8316,0.4156 0.8314,0.4534 C 0.8313,0.5052 0.8321,0.5367 0.834,0.5787"
   id="path1017"
   style="fill:#000000;fill-opacity:1;fill-rule:nonzero;stroke:none;stroke-opacity:1" />

<path
   d="M 0.0884,8.0864 C 0.0884,8.0569 0.0826,8.0329 0.0753,8.0329 L 0.0136,8.0329 C 0.0064,8.0329 0.0005,8.0569 0.0005,8.0864 L 0.0005,8.8595 C 0.0005,8.889 0.0064,8.9129 0.0136,8.9129 L 0.0753,8.9129 C 0.0826,8.9129 0.0884,8.889 0.0884,8.8595 L 0.0884,8.0864"
   id="path1019"
   style="fill:#000000;fill-opacity:1;fill-rule:nonzero;stroke:none;stroke-opacity:1" />

<path
   d="M 0.4353,8.6395 C 0.4353,8.6665 0.4406,8.6884 0.4473,8.6884 C 0.4473,8.6884 0.4473,8.6884 0.4473,8.6884 L 0.5214,8.6884 C 0.5286,8.6884 0.5345,8.7123 0.5345,8.7418 L 0.5345,8.8591 C 0.5345,8.8886 0.5286,8.9125 0.5214,8.9125 L 0.4003,8.9125 C 0.3995,8.9128 0.3986,8.9129 0.3978,8.9129 C 0.3735,8.9129 0.3538,8.8338 0.3532,8.7354 L 0.3532,8.7354 L 0.3532,8.2167 L 0.3532,8.2167 C 0.3532,8.2159 0.3532,8.2153 0.3532,8.2145 C 0.3532,8.1145 0.3731,8.0334 0.3976,8.033 C 0.3976,8.0329 0.3975,8.0327 0.3975,8.0326 L 0.5214,8.0326 C 0.5286,8.0326 0.5345,8.0565 0.5345,8.0861 L 0.5345,8.2034 C 0.5345,8.2329 0.5286,8.2568 0.5214,8.2568 L 0.4466,8.2568 C 0.4403,8.2582 0.4353,8.2793 0.4353,8.3054 C 0.4353,8.3057 0.4353,8.3058 0.4353,8.3061 L 0.4353,8.3773 L 0.4996,8.3773 C 0.5069,8.3773 0.5128,8.4012 0.5128,8.4307 L 0.5128,8.5193 C 0.5128,8.5488 0.5069,8.5727 0.4996,8.5727 L 0.4353,8.5727 L 0.4353,8.6392 C 0.4353,8.6393 0.4353,8.6394 0.4353,8.6395"
   id="path1021"
   style="fill:#000000;fill-opacity:1;fill-rule:nonzero;stroke:none;stroke-opacity:1" />

<path
   d="M 0.327,8.9123 C 0.327,8.9123 0.2987,8.9123 0.2892,8.9123 C 0.2798,8.9123 0.278,8.8767 0.278,8.8767 L 0.2446,8.3052 C 0.2446,8.3052 0.2436,8.2807 0.2395,8.28 C 0.2346,8.2792 0.2337,8.3007 0.2337,8.3007 L 0.2009,8.8689 C 0.2009,8.8693 0.2009,8.8696 0.2008,8.87 C 0.1997,8.8945 0.1945,8.9129 0.1881,8.9129 C 0.181,8.9129 0.1298,8.9129 0.1236,8.9129 C 0.1165,8.9129 0.1107,8.8892 0.1107,8.86 C 0.1107,8.8568 0.1108,8.8536 0.1109,8.8505 C 0.1109,8.85 0.1109,8.8493 0.1109,8.8493 L 0.1567,8.1566 C 0.1573,8.1492 0.1587,8.1336 0.1596,8.1273 C 0.1667,8.0712 0.1809,8.0328 0.1975,8.0328 C 0.2078,8.0328 0.2416,8.0328 0.252,8.0328 C 0.2708,8.0328 0.2867,8.0824 0.2923,8.1511 C 0.2926,8.1538 0.2936,8.1699 0.2936,8.1699 C 0.2936,8.1699 0.334,8.8056 0.3366,8.8515 C 0.34,8.9089 0.327,8.9123 0.327,8.9123"
   id="path1023"
   style="fill:#000000;fill-opacity:1;fill-rule:nonzero;stroke:none;stroke-opacity:1" />

<path
   d="M 0.6649,8.6884 L 0.722,8.6884 C 0.7292,8.6884 0.7351,8.7123 0.7351,8.7418 L 0.7351,8.8591 C 0.7351,8.8886 0.7292,8.9125 0.722,8.9125 L 0.6455,8.9125 C 0.6451,8.9127 0.6447,8.9129 0.6442,8.9129 C 0.6436,8.9129 0.643,8.9126 0.6424,8.9125 L 0.641,8.9125 C 0.6402,8.9125 0.639,8.9122 0.6376,8.9115 C 0.5884,8.8976 0.5495,8.736 0.5495,8.532 C 0.5491,8.4845 0.5488,8.4601 0.5492,8.4202 C 0.5492,8.2098 0.5908,8.0376 0.6422,8.0333 C 0.643,8.0331 0.6436,8.0329 0.6442,8.0329 L 0.722,8.0329 C 0.7292,8.0329 0.7351,8.0569 0.7351,8.0864 L 0.7351,8.2018 C 0.7351,8.2314 0.7292,8.2553 0.722,8.2553 L 0.6656,8.2553 C 0.6502,8.2591 0.6413,8.2983 0.6386,8.3608 C 0.6375,8.3881 0.6366,8.4155 0.6363,8.4678 C 0.636,8.5273 0.6369,8.5546 0.638,8.5796 C 0.6409,8.641 0.6499,8.6833 0.6649,8.6884"
   id="path1025"
   style="fill:#000000;fill-opacity:1;fill-rule:nonzero;stroke:none;stroke-opacity:1" />

<path
   d="M 1,8.4917 C 1,8.4926 1,8.4933 1,8.4942 C 0.998,8.8538 0.9474,8.8959 0.9233,8.9136 C 0.8622,8.9585 0.8161,8.9072 0.8106,8.8999 C 0.7835,8.8642 0.7477,8.801 0.7472,8.478 C 0.7472,8.476 0.7472,8.4741 0.7472,8.4721 C 0.7472,8.4701 0.7472,8.4683 0.7472,8.4662 C 0.7471,8.1835 0.7833,8.0842 0.8072,8.0494 C 0.8101,8.0438 0.8145,8.0389 0.8201,8.0349 C 0.822,8.0334 0.8236,8.0325 0.8249,8.0318 C 0.8504,8.0169 0.8932,8.0156 0.9206,8.0317 C 0.9235,8.033 0.9279,8.0357 0.9334,8.0418 C 0.9352,8.0438 0.9369,8.0458 0.9384,8.0481 C 0.9623,8.0808 0.9982,8.1757 1,8.4501 C 1,8.4509 1,8.4517 1,8.4525 C 1,8.4588 1,8.4656 1,8.4721 C 1,8.4786 1,8.4854 1,8.4917 z M 0.834,8.5989 C 0.834,8.5989 0.8345,8.6142 0.837,8.6377 C 0.8409,8.6664 0.8509,8.7031 0.8744,8.7037 C 0.9118,8.7047 0.9138,8.5998 0.9138,8.5998 C 0.9139,8.5953 0.914,8.5906 0.9142,8.5861 C 0.9147,8.5642 0.9156,8.5258 0.9157,8.4777 C 0.9156,8.4296 0.9149,8.388 0.9144,8.3661 C 0.9143,8.3615 0.9139,8.3542 0.9138,8.3496 C 0.9138,8.3496 0.9118,8.2448 0.8744,8.2457 C 0.8509,8.2464 0.8411,8.2852 0.837,8.3118 C 0.8346,8.3318 0.8335,8.3563 0.8335,8.3563 C 0.8313,8.4131 0.8316,8.4357 0.8314,8.4735 C 0.8313,8.5253 0.8321,8.5568 0.834,8.5989"
   id="path1027"
   style="fill:#000000;fill-opacity:1;fill-rule:nonzero;stroke:none;stroke-opacity:1" />

<path
   d="M 0.0556,7.5958 L 0.047,7.5958 L 0.047,7.7847 L 0.0468,7.7847 L 0.0285,7.6908 L 0.0271,7.6908 L 0.0087,7.7847 L 0.0086,7.7847 L 0.0086,7.5958 L 0,7.5958 L 0,7.8384 L 0.008,7.8384 L 0.0278,7.7388 L 0.0476,7.8384 L 0.0556,7.8384 L 0.0556,7.5958"
   id="path1029"
   style="fill:#000000;fill-opacity:1;fill-rule:nonzero;stroke:none;stroke-opacity:1" />

<path
   d="M 0.1009,7.6051 C 0.0973,7.5955 0.0959,7.5926 0.0934,7.5926 C 0.09,7.5926 0.0882,7.5976 0.0875,7.609 C 0.0841,7.598 0.0805,7.5926 0.0769,7.5926 C 0.0711,7.5926 0.0673,7.6111 0.0673,7.6317 C 0.0673,7.6634 0.0744,7.673 0.0807,7.6823 L 0.0876,7.6922 L 0.0876,7.7008 C 0.0876,7.7207 0.0852,7.7289 0.0805,7.7289 C 0.0762,7.7289 0.0718,7.7207 0.0681,7.7025 L 0.0681,7.737 C 0.0711,7.7516 0.0754,7.7587 0.0811,7.7587 C 0.089,7.7587 0.0953,7.7424 0.0953,7.7061 L 0.0953,7.6239 C 0.0953,7.6179 0.0959,7.6157 0.0968,7.6157 C 0.0976,7.6157 0.0992,7.6189 0.1009,7.6243 L 0.1009,7.6051 z M 0.0876,7.6748 C 0.0809,7.6655 0.0751,7.6563 0.0751,7.6374 C 0.0751,7.6243 0.0775,7.615 0.0807,7.615 C 0.0832,7.615 0.0855,7.62 0.0876,7.6282 L 0.0876,7.6748"
   id="path1031"
   style="fill:#000000;fill-opacity:1;fill-rule:nonzero;stroke:none;stroke-opacity:1" />

<path
   d="M 0.1151,7.7851 C 0.1125,7.7851 0.1105,7.7936 0.1105,7.8039 C 0.1105,7.8142 0.1125,7.8228 0.1151,7.8228 C 0.1176,7.8228 0.1197,7.8142 0.1197,7.8039 C 0.1197,7.7936 0.1176,7.7851 0.1151,7.7851 z M 0.1189,7.5958 L 0.1112,7.5958 L 0.1112,7.7555 L 0.1189,7.7555 L 0.1189,7.5958"
   id="path1033"
   style="fill:#000000;fill-opacity:1;fill-rule:nonzero;stroke:none;stroke-opacity:1" />

<path
   d="M 0.1561,7.7143 C 0.1517,7.726 0.1476,7.731 0.1447,7.731 C 0.1416,7.731 0.1395,7.7249 0.1395,7.7164 C 0.1395,7.7093 0.1422,7.7008 0.1491,7.6844 C 0.1555,7.667 0.1579,7.6559 0.1579,7.6396 C 0.1579,7.6115 0.1524,7.5926 0.145,7.5926 C 0.1402,7.5926 0.1364,7.5965 0.1313,7.6072 L 0.1313,7.6413 C 0.1364,7.6271 0.141,7.6204 0.1442,7.6204 C 0.1473,7.6211 0.1499,7.6271 0.1499,7.6385 C 0.1499,7.6606 0.1316,7.6723 0.1316,7.7153 C 0.1316,7.7424 0.1367,7.7587 0.1445,7.7587 C 0.1482,7.7587 0.152,7.7545 0.1561,7.7456 L 0.1561,7.7143"
   id="path1035"
   style="fill:#000000;fill-opacity:1;fill-rule:nonzero;stroke:none;stroke-opacity:1" />

<path
   d="M 0.2178,7.8075 C 0.2165,7.8096 0.2157,7.8103 0.2143,7.8103 C 0.2081,7.8103 0.206,7.7954 0.206,7.7708 L 0.206,7.7555 L 0.2131,7.7555 L 0.2131,7.7271 L 0.206,7.7271 L 0.206,7.5958 L 0.1983,7.5958 L 0.1983,7.7271 L 0.1928,7.7271 L 0.1928,7.7555 L 0.1983,7.7555 L 0.1983,7.7673 C 0.1983,7.7986 0.2001,7.8135 0.2033,7.8263 C 0.2066,7.8398 0.211,7.8462 0.2178,7.8384 L 0.2178,7.8075"
   id="path1037"
   style="fill:#000000;fill-opacity:1;fill-rule:nonzero;stroke:none;stroke-opacity:1" />

<path
   d="M 0.2612,7.6773 C 0.2612,7.6268 0.2526,7.5926 0.24,7.5926 C 0.2279,7.5926 0.2193,7.6282 0.2193,7.6773 C 0.2193,7.7232 0.2283,7.7587 0.24,7.7587 C 0.2523,7.7587 0.2612,7.7246 0.2612,7.6773 z M 0.2272,7.6773 C 0.2272,7.6435 0.2324,7.6211 0.2399,7.6211 C 0.2481,7.6211 0.2533,7.6424 0.2533,7.6769 C 0.2533,7.7079 0.2477,7.7303 0.2399,7.7303 C 0.2325,7.7303 0.2272,7.7079 0.2272,7.6773"
   id="path1039"
   style="fill:#000000;fill-opacity:1;fill-rule:nonzero;stroke:none;stroke-opacity:1" />

<path
   d="M 0.2813,7.7555 L 0.2813,7.7189 L 0.2815,7.7189 C 0.2854,7.747 0.2892,7.7587 0.2928,7.7587 C 0.296,7.7587 0.299,7.7527 0.3022,7.7402 L 0.2981,7.7128 C 0.2957,7.7221 0.2927,7.7285 0.2908,7.7285 C 0.2855,7.7285 0.2813,7.7068 0.2813,7.6794 L 0.2813,7.5958 L 0.2735,7.5958 L 0.2735,7.7555 L 0.2813,7.7555"
   id="path1041"
   style="fill:#000000;fill-opacity:1;fill-rule:nonzero;stroke:none;stroke-opacity:1" />

<path
   d="M 0.3405,7.6019 C 0.3378,7.5969 0.3329,7.5926 0.3281,7.5926 L 0.3277,7.5876 C 0.3306,7.5844 0.3324,7.5763 0.3324,7.5652 C 0.3324,7.5385 0.3266,7.5289 0.3189,7.5336 L 0.3189,7.5531 C 0.323,7.5506 0.3262,7.5542 0.3262,7.5624 C 0.3262,7.5684 0.3245,7.5727 0.3211,7.5713 L 0.3232,7.5955 C 0.3146,7.604 0.3088,7.6335 0.3088,7.6726 C 0.3088,7.7253 0.3163,7.7587 0.3282,7.7587 C 0.3328,7.7587 0.3358,7.7545 0.3396,7.7477 L 0.3396,7.7139 C 0.3351,7.726 0.3322,7.7296 0.3288,7.7296 C 0.3217,7.7296 0.3168,7.7079 0.3168,7.6755 C 0.3168,7.6424 0.322,7.6225 0.3301,7.6225 C 0.3334,7.6225 0.3365,7.6261 0.3405,7.6332 L 0.3405,7.6019"
   id="path1043"
   style="fill:#000000;fill-opacity:1;fill-rule:nonzero;stroke:none;stroke-opacity:1" />

<path
   d="M 0.3826,7.6051 C 0.379,7.5955 0.3775,7.5926 0.3751,7.5926 C 0.3717,7.5926 0.3698,7.5976 0.3691,7.609 C 0.3657,7.598 0.3621,7.5926 0.3585,7.5926 C 0.3528,7.5926 0.3489,7.6111 0.3489,7.6317 C 0.3489,7.6634 0.356,7.673 0.3623,7.6823 L 0.3692,7.6922 L 0.3692,7.7008 C 0.3692,7.7207 0.3669,7.7289 0.3621,7.7289 C 0.3578,7.7289 0.3535,7.7207 0.3497,7.7025 L 0.3497,7.737 C 0.3528,7.7516 0.3571,7.7587 0.3627,7.7587 C 0.3707,7.7587 0.377,7.7424 0.377,7.7061 L 0.377,7.6239 C 0.377,7.6179 0.3775,7.6157 0.3785,7.6157 C 0.3793,7.6157 0.3808,7.6189 0.3826,7.6243 L 0.3826,7.6051 z M 0.3692,7.6748 C 0.3626,7.6655 0.3568,7.6563 0.3568,7.6374 C 0.3568,7.6243 0.3592,7.615 0.3624,7.615 C 0.3648,7.615 0.3671,7.62 0.3692,7.6282 L 0.3692,7.6748"
   id="path1045"
   style="fill:#000000;fill-opacity:1;fill-rule:nonzero;stroke:none;stroke-opacity:1" />

<path
   d="M 0.3923,7.5606 C 0.3952,7.5684 0.3962,7.5866 0.3954,7.5994 C 0.3929,7.5997 0.3911,7.6076 0.3911,7.6193 C 0.3911,7.631 0.3933,7.6396 0.3963,7.6396 C 0.4001,7.6396 0.4025,7.6261 0.4025,7.6051 C 0.4025,7.5848 0.3992,7.5617 0.3923,7.5538 L 0.3923,7.5606"
   id="path1047"
   style="fill:#000000;fill-opacity:1;fill-rule:nonzero;stroke:none;stroke-opacity:1" />

<path
   d="M 0.4411,7.7555 L 0.4411,7.7345 C 0.4451,7.7509 0.4488,7.7587 0.4525,7.7587 C 0.4575,7.7587 0.4616,7.7488 0.4642,7.7299 C 0.4676,7.7456 0.4717,7.7587 0.4773,7.7587 C 0.4853,7.7587 0.4903,7.7338 0.4903,7.6961 L 0.4903,7.5958 L 0.4826,7.5958 L 0.4826,7.6947 C 0.4826,7.7189 0.4789,7.7321 0.4744,7.7321 C 0.4719,7.7324 0.4685,7.7235 0.4657,7.7118 L 0.4657,7.5958 L 0.4579,7.5958 L 0.4579,7.6951 C 0.4579,7.721 0.4547,7.7321 0.4508,7.7321 C 0.4469,7.7321 0.4443,7.7271 0.4411,7.7118 L 0.4411,7.5958 L 0.4333,7.5958 L 0.4333,7.7555 L 0.4411,7.7555"
   id="path1049"
   style="fill:#000000;fill-opacity:1;fill-rule:nonzero;stroke:none;stroke-opacity:1" />

<path
   d="M 0.5345,7.6051 C 0.531,7.5955 0.5295,7.5926 0.527,7.5926 C 0.5236,7.5926 0.5218,7.5976 0.5211,7.609 C 0.5177,7.598 0.5141,7.5926 0.5105,7.5926 C 0.5048,7.5926 0.5009,7.6111 0.5009,7.6317 C 0.5009,7.6634 0.508,7.673 0.5143,7.6823 L 0.5212,7.6922 L 0.5212,7.7008 C 0.5212,7.7207 0.5188,7.7289 0.5141,7.7289 C 0.5098,7.7289 0.5054,7.7207 0.5017,7.7025 L 0.5017,7.737 C 0.5048,7.7516 0.509,7.7587 0.5147,7.7587 C 0.5227,7.7587 0.529,7.7424 0.529,7.7061 L 0.529,7.6239 C 0.529,7.6179 0.5295,7.6157 0.5304,7.6157 C 0.5312,7.6157 0.5328,7.6189 0.5345,7.6243 L 0.5345,7.6051 z M 0.5212,7.6748 C 0.5145,7.6655 0.5088,7.6563 0.5088,7.6374 C 0.5088,7.6243 0.5111,7.615 0.5144,7.615 C 0.5168,7.615 0.5191,7.62 0.5212,7.6282 L 0.5212,7.6748"
   id="path1051"
   style="fill:#000000;fill-opacity:1;fill-rule:nonzero;stroke:none;stroke-opacity:1" />

<path
   d="M 0.5487,7.7851 C 0.5462,7.7851 0.5441,7.7936 0.5441,7.8039 C 0.5441,7.8142 0.5462,7.8228 0.5487,7.8228 C 0.5512,7.8228 0.5533,7.8142 0.5533,7.8039 C 0.5533,7.7936 0.5512,7.7851 0.5487,7.7851 z M 0.5525,7.5958 L 0.5448,7.5958 L 0.5448,7.7555 L 0.5525,7.7555 L 0.5525,7.5958"
   id="path1053"
   style="fill:#000000;fill-opacity:1;fill-rule:nonzero;stroke:none;stroke-opacity:1" />

<path
   d="M 0.5897,7.7143 C 0.5853,7.726 0.5812,7.731 0.5783,7.731 C 0.5752,7.731 0.5732,7.7249 0.5732,7.7164 C 0.5732,7.7093 0.5758,7.7008 0.5827,7.6844 C 0.5892,7.667 0.5915,7.6559 0.5915,7.6396 C 0.5915,7.6115 0.586,7.5926 0.5786,7.5926 C 0.5738,7.5926 0.57,7.5965 0.565,7.6072 L 0.565,7.6413 C 0.57,7.6271 0.5747,7.6204 0.5778,7.6204 C 0.5809,7.6211 0.5836,7.6271 0.5836,7.6385 C 0.5836,7.6606 0.5652,7.6723 0.5652,7.7153 C 0.5652,7.7424 0.5703,7.7587 0.5782,7.7587 C 0.5818,7.7587 0.5856,7.7545 0.5897,7.7456 L 0.5897,7.7143"
   id="path1055"
   style="fill:#000000;fill-opacity:1;fill-rule:nonzero;stroke:none;stroke-opacity:1" />

<path
   d="M 0.6599,7.7139 C 0.6555,7.726 0.6525,7.7296 0.6491,7.7296 C 0.642,7.7296 0.6371,7.7079 0.6371,7.6755 C 0.6371,7.6424 0.6424,7.6225 0.6504,7.6225 C 0.6537,7.6225 0.6569,7.6261 0.6608,7.6332 L 0.6608,7.6019 C 0.6582,7.5969 0.6532,7.5926 0.6491,7.5926 C 0.6374,7.5926 0.6292,7.6257 0.6292,7.6726 C 0.6292,7.7253 0.6367,7.7587 0.6486,7.7587 C 0.6531,7.7587 0.6562,7.7545 0.6599,7.7477 L 0.6599,7.7139"
   id="path1057"
   style="fill:#000000;fill-opacity:1;fill-rule:nonzero;stroke:none;stroke-opacity:1" />

<path
   d="M 0.7121,7.6773 C 0.7121,7.6268 0.7035,7.5926 0.6909,7.5926 C 0.6788,7.5926 0.6702,7.6282 0.6702,7.6773 C 0.6702,7.7232 0.6792,7.7587 0.6909,7.7587 C 0.7032,7.7587 0.7121,7.7246 0.7121,7.6773 z M 0.6781,7.6773 C 0.6781,7.6435 0.6833,7.6211 0.6908,7.6211 C 0.699,7.6211 0.7042,7.6424 0.7042,7.6769 C 0.7042,7.7079 0.6986,7.7303 0.6908,7.7303 C 0.6835,7.7303 0.6781,7.7079 0.6781,7.6773"
   id="path1059"
   style="fill:#000000;fill-opacity:1;fill-rule:nonzero;stroke:none;stroke-opacity:1" />

<path
   d="M 0.7315,7.7345 L 0.7317,7.7345 C 0.7347,7.7498 0.739,7.7587 0.7434,7.7587 C 0.7508,7.7587 0.7568,7.7381 0.7568,7.6943 L 0.7568,7.5958 L 0.749,7.5958 L 0.749,7.6947 C 0.749,7.7182 0.746,7.7335 0.7413,7.7335 C 0.7379,7.7335 0.7352,7.7271 0.7315,7.7104 L 0.7315,7.5958 L 0.7237,7.5958 L 0.7237,7.7555 L 0.7315,7.7555 L 0.7315,7.7345"
   id="path1061"
   style="fill:#000000;fill-opacity:1;fill-rule:nonzero;stroke:none;stroke-opacity:1" />

<path
   d="M 0.7911,7.8075 C 0.7898,7.8096 0.789,7.8103 0.7876,7.8103 C 0.7813,7.8103 0.7793,7.7954 0.7793,7.7708 L 0.7793,7.7555 L 0.7864,7.7555 L 0.7864,7.7271 L 0.7793,7.7271 L 0.7793,7.5958 L 0.7715,7.5958 L 0.7715,7.7271 L 0.766,7.7271 L 0.766,7.7555 L 0.7715,7.7555 L 0.7715,7.7673 C 0.7715,7.7986 0.7734,7.8135 0.7765,7.8263 C 0.7798,7.8398 0.7843,7.8462 0.7911,7.8384 L 0.7911,7.8075"
   id="path1063"
   style="fill:#000000;fill-opacity:1;fill-rule:nonzero;stroke:none;stroke-opacity:1" />

<path
   d="M 0.7998,7.7851 C 0.7973,7.7851 0.7952,7.7936 0.7952,7.8039 C 0.7952,7.8142 0.7973,7.8228 0.7998,7.8228 C 0.8024,7.8228 0.8045,7.8142 0.8045,7.8039 C 0.8045,7.7936 0.8024,7.7851 0.7998,7.7851 z M 0.8037,7.5958 L 0.7959,7.5958 L 0.7959,7.7555 L 0.8037,7.7555 L 0.8037,7.5958"
   id="path1065"
   style="fill:#000000;fill-opacity:1;fill-rule:nonzero;stroke:none;stroke-opacity:1" />

<path
   d="M 0.8484,7.6051 C 0.8448,7.5955 0.8434,7.5926 0.8409,7.5926 C 0.8375,7.5926 0.8357,7.5976 0.835,7.609 C 0.8316,7.598 0.828,7.5926 0.8244,7.5926 C 0.8186,7.5926 0.8148,7.6111 0.8148,7.6317 C 0.8148,7.6634 0.8219,7.673 0.8282,7.6823 L 0.8351,7.6922 L 0.8351,7.7008 C 0.8351,7.7207 0.8327,7.7289 0.828,7.7289 C 0.8237,7.7289 0.8193,7.7207 0.8156,7.7025 L 0.8156,7.737 C 0.8186,7.7516 0.8229,7.7587 0.8286,7.7587 C 0.8365,7.7587 0.8428,7.7424 0.8428,7.7061 L 0.8428,7.6239 C 0.8428,7.6179 0.8434,7.6157 0.8443,7.6157 C 0.8451,7.6157 0.8467,7.6189 0.8484,7.6243 L 0.8484,7.6051 z M 0.8351,7.6748 C 0.8284,7.6655 0.8226,7.6563 0.8226,7.6374 C 0.8226,7.6243 0.825,7.615 0.8282,7.615 C 0.8307,7.615 0.833,7.62 0.8351,7.6282 L 0.8351,7.6748"
   id="path1067"
   style="fill:#000000;fill-opacity:1;fill-rule:nonzero;stroke:none;stroke-opacity:1" />

<path
   d="M 0.8661,7.7345 L 0.8663,7.7345 C 0.8692,7.7498 0.8736,7.7587 0.878,7.7587 C 0.8854,7.7587 0.8913,7.7381 0.8913,7.6943 L 0.8913,7.5958 L 0.8836,7.5958 L 0.8836,7.6947 C 0.8836,7.7182 0.8806,7.7335 0.8759,7.7335 C 0.8725,7.7335 0.8697,7.7271 0.8661,7.7104 L 0.8661,7.5958 L 0.8583,7.5958 L 0.8583,7.7555 L 0.8661,7.7555 L 0.8661,7.7345"
   id="path1069"
   style="fill:#000000;fill-opacity:1;fill-rule:nonzero;stroke:none;stroke-opacity:1" />

<path
   d="M 0.935,7.6019 C 0.9324,7.5969 0.9274,7.5926 0.9226,7.5926 L 0.9223,7.5876 C 0.9251,7.5844 0.927,7.5763 0.927,7.5652 C 0.927,7.5385 0.9211,7.5289 0.9134,7.5336 L 0.9134,7.5531 C 0.9175,7.5506 0.9208,7.5542 0.9208,7.5624 C 0.9208,7.5684 0.919,7.5727 0.9157,7.5713 L 0.9178,7.5955 C 0.9092,7.604 0.9034,7.6335 0.9034,7.6726 C 0.9034,7.7253 0.9109,7.7587 0.9228,7.7587 C 0.9273,7.7587 0.9304,7.7545 0.9341,7.7477 L 0.9341,7.7139 C 0.9297,7.726 0.9267,7.7296 0.9233,7.7296 C 0.9162,7.7296 0.9113,7.7079 0.9113,7.6755 C 0.9113,7.6424 0.9166,7.6225 0.9246,7.6225 C 0.9279,7.6225 0.9311,7.6261 0.935,7.6332 L 0.935,7.6019"
   id="path1071"
   style="fill:#000000;fill-opacity:1;fill-rule:nonzero;stroke:none;stroke-opacity:1" />

<path
   d="M 0.9771,7.6051 C 0.9736,7.5955 0.9721,7.5926 0.9696,7.5926 C 0.9662,7.5926 0.9644,7.5976 0.9637,7.609 C 0.9603,7.598 0.9567,7.5926 0.9531,7.5926 C 0.9473,7.5926 0.9435,7.6111 0.9435,7.6317 C 0.9435,7.6634 0.9506,7.673 0.9569,7.6823 L 0.9638,7.6922 L 0.9638,7.7008 C 0.9638,7.7207 0.9614,7.7289 0.9567,7.7289 C 0.9524,7.7289 0.948,7.7207 0.9443,7.7025 L 0.9443,7.737 C 0.9473,7.7516 0.9516,7.7587 0.9573,7.7587 C 0.9653,7.7587 0.9715,7.7424 0.9715,7.7061 L 0.9715,7.6239 C 0.9715,7.6179 0.9721,7.6157 0.973,7.6157 C 0.9738,7.6157 0.9754,7.6189 0.9771,7.6243 L 0.9771,7.6051 z M 0.9638,7.6748 C 0.9571,7.6655 0.9514,7.6563 0.9514,7.6374 C 0.9514,7.6243 0.9537,7.615 0.957,7.615 C 0.9594,7.615 0.9617,7.62 0.9638,7.6282 L 0.9638,7.6748"
   id="path1073"
   style="fill:#000000;fill-opacity:1;fill-rule:nonzero;stroke:none;stroke-opacity:1" />

<path
   d="M 0.9965,7.614 C 0.9965,7.6022 0.9941,7.5926 0.9912,7.5926 C 0.9883,7.5926 0.986,7.6022 0.986,7.614 C 0.986,7.6257 0.9883,7.6353 0.9912,7.6353 C 0.9941,7.6353 0.9965,7.6257 0.9965,7.614"
   id="path1075"
   style="fill:#000000;fill-opacity:1;fill-rule:nonzero;stroke:none;stroke-opacity:1" />

<path
   d="M 0.0884,2.7004 C 0.0884,2.6709 0.0826,2.647 0.0753,2.647 L 0.0136,2.647 C 0.0064,2.647 0.0005,2.6709 0.0005,2.7004 L 0.0005,3.4735 C 0.0005,3.503 0.0064,3.5269 0.0136,3.5269 L 0.0753,3.5269 C 0.0826,3.5269 0.0884,3.503 0.0884,3.4735 L 0.0884,2.7004"
   id="path1077"
   style="fill:#000000;fill-opacity:1;fill-rule:nonzero;stroke:none;stroke-opacity:1" />

<path
   d="M 0.4353,3.2535 C 0.4353,3.2805 0.4406,3.3024 0.4473,3.3024 C 0.4473,3.3024 0.4473,3.3025 0.4473,3.3025 L 0.5214,3.3025 C 0.5286,3.3025 0.5345,3.3263 0.5345,3.3559 L 0.5345,3.4731 C 0.5345,3.5027 0.5286,3.5266 0.5214,3.5266 L 0.4003,3.5266 C 0.3995,3.5268 0.3986,3.527 0.3978,3.527 C 0.3735,3.527 0.3538,3.4479 0.3532,3.3495 L 0.3532,3.3495 L 0.3532,2.8308 L 0.3532,2.8308 C 0.3532,2.83 0.3532,2.8294 0.3532,2.8286 C 0.3532,2.7285 0.3731,2.6474 0.3976,2.6471 C 0.3976,2.6469 0.3975,2.6468 0.3975,2.6467 L 0.5214,2.6467 C 0.5286,2.6467 0.5345,2.6706 0.5345,2.7001 L 0.5345,2.8174 C 0.5345,2.8469 0.5286,2.8708 0.5214,2.8708 L 0.4466,2.8708 C 0.4403,2.8722 0.4353,2.8933 0.4353,2.9194 C 0.4353,2.9197 0.4353,2.9198 0.4353,2.9201 L 0.4353,2.9913 L 0.4996,2.9913 C 0.5069,2.9913 0.5128,3.0153 0.5128,3.0447 L 0.5128,3.1333 C 0.5128,3.1629 0.5069,3.1868 0.4996,3.1868 L 0.4353,3.1868 L 0.4353,3.2532 C 0.4353,3.2534 0.4353,3.2534 0.4353,3.2535"
   id="path1079"
   style="fill:#000000;fill-opacity:1;fill-rule:nonzero;stroke:none;stroke-opacity:1" />

<path
   d="M 0.327,3.5263 C 0.327,3.5263 0.2987,3.5263 0.2892,3.5263 C 0.2798,3.5263 0.278,3.4907 0.278,3.4907 L 0.2446,2.9192 C 0.2446,2.9192 0.2436,2.8947 0.2395,2.894 C 0.2346,2.8932 0.2337,2.9148 0.2337,2.9148 L 0.2009,3.4829 C 0.2009,3.4833 0.2009,3.4837 0.2008,3.4841 C 0.1997,3.5085 0.1945,3.527 0.1881,3.527 C 0.181,3.527 0.1298,3.5269 0.1236,3.5269 C 0.1165,3.5269 0.1107,3.5032 0.1107,3.4741 C 0.1107,3.4708 0.1108,3.4677 0.1109,3.4646 C 0.1109,3.464 0.1109,3.4633 0.1109,3.4633 L 0.1567,2.7707 C 0.1573,2.7632 0.1587,2.7476 0.1596,2.7413 C 0.1667,2.6853 0.1809,2.6468 0.1975,2.6468 C 0.2078,2.6468 0.2416,2.6468 0.252,2.6468 C 0.2708,2.6468 0.2867,2.6964 0.2923,2.7651 C 0.2926,2.7678 0.2936,2.7839 0.2936,2.7839 C 0.2936,2.7839 0.334,3.4196 0.3366,3.4655 C 0.34,3.5229 0.327,3.5263 0.327,3.5263"
   id="path1081"
   style="fill:#000000;fill-opacity:1;fill-rule:nonzero;stroke:none;stroke-opacity:1" />

<path
   d="M 0.6649,3.3025 L 0.722,3.3025 C 0.7292,3.3025 0.7351,3.3263 0.7351,3.3559 L 0.7351,3.4731 C 0.7351,3.5027 0.7292,3.5266 0.722,3.5266 L 0.6455,3.5266 C 0.6451,3.5267 0.6447,3.5269 0.6442,3.5269 C 0.6436,3.5269 0.643,3.5266 0.6424,3.5266 L 0.641,3.5266 C 0.6402,3.5266 0.639,3.5262 0.6376,3.5256 C 0.5884,3.5117 0.5495,3.3501 0.5495,3.1461 C 0.5491,3.0985 0.5488,3.0742 0.5492,3.0342 C 0.5492,2.8239 0.5908,2.6517 0.6422,2.6474 C 0.643,2.6472 0.6436,2.647 0.6442,2.647 L 0.722,2.647 C 0.7292,2.647 0.7351,2.6709 0.7351,2.7005 L 0.7351,2.8159 C 0.7351,2.8454 0.7292,2.8694 0.722,2.8694 L 0.6656,2.8694 C 0.6502,2.8731 0.6413,2.9123 0.6386,2.9748 C 0.6375,3.0021 0.6366,3.0295 0.6363,3.0818 C 0.636,3.1413 0.6369,3.1686 0.638,3.1936 C 0.6409,3.255 0.6499,3.2973 0.6649,3.3025"
   id="path1083"
   style="fill:#000000;fill-opacity:1;fill-rule:nonzero;stroke:none;stroke-opacity:1" />

<path
   d="M 1,3.1058 C 1,3.1066 1,3.1073 1,3.1082 C 0.998,3.4679 0.9474,3.5099 0.9233,3.5276 C 0.8622,3.5726 0.8161,3.5212 0.8106,3.5139 C 0.7835,3.4782 0.7477,3.415 0.7472,3.0921 C 0.7472,3.09 0.7472,3.0882 0.7472,3.0862 C 0.7472,3.0842 0.7472,3.0823 0.7472,3.0803 C 0.7471,2.7975 0.7833,2.6982 0.8072,2.6634 C 0.8101,2.6579 0.8145,2.653 0.8201,2.649 C 0.822,2.6475 0.8236,2.6465 0.8249,2.6459 C 0.8504,2.631 0.8932,2.6296 0.9206,2.6458 C 0.9235,2.6471 0.9279,2.6498 0.9334,2.6559 C 0.9352,2.6578 0.9369,2.6599 0.9384,2.6621 C 0.9623,2.6948 0.9982,2.7897 1,3.0641 C 1,3.065 1,3.0657 1,3.0665 C 1,3.0729 1,3.0796 1,3.0862 C 1,3.0927 1,3.0994 1,3.1058 z M 0.834,3.2129 C 0.834,3.2129 0.8345,3.2283 0.837,3.2517 C 0.8409,3.2805 0.8509,3.3172 0.8744,3.3178 C 0.9118,3.3187 0.9138,3.2138 0.9138,3.2138 C 0.9139,3.2093 0.914,3.2047 0.9142,3.2001 C 0.9147,3.1783 0.9156,3.1399 0.9157,3.0917 C 0.9156,3.0436 0.9149,3.002 0.9144,2.9801 C 0.9143,2.9756 0.9139,2.9682 0.9138,2.9637 C 0.9138,2.9637 0.9118,2.8588 0.8744,2.8598 C 0.8509,2.8604 0.8411,2.8992 0.837,2.9258 C 0.8346,2.9458 0.8335,2.9703 0.8335,2.9703 C 0.8313,3.0271 0.8316,3.0498 0.8314,3.0875 C 0.8313,3.1394 0.8321,3.1709 0.834,3.2129"
   id="path1085"
   style="fill:#000000;fill-opacity:1;fill-rule:nonzero;stroke:none;stroke-opacity:1" />

<path
   d="M 0.0556,2.2099 L 0.047,2.2099 L 0.047,2.3987 L 0.0468,2.3987 L 0.0285,2.3048 L 0.0271,2.3048 L 0.0087,2.3987 L 0.0086,2.3987 L 0.0086,2.2099 L 0,2.2099 L 0,2.4525 L 0.008,2.4525 L 0.0278,2.3529 L 0.0476,2.4525 L 0.0556,2.4525 L 0.0556,2.2099"
   id="path1087"
   style="fill:#000000;fill-opacity:1;fill-rule:nonzero;stroke:none;stroke-opacity:1" />

<path
   d="M 0.1009,2.2191 C 0.0973,2.2095 0.0959,2.2067 0.0934,2.2067 C 0.09,2.2067 0.0882,2.2116 0.0875,2.223 C 0.0841,2.212 0.0805,2.2067 0.0769,2.2067 C 0.0711,2.2067 0.0673,2.2252 0.0673,2.2458 C 0.0673,2.2774 0.0744,2.2871 0.0807,2.2963 L 0.0876,2.3063 L 0.0876,2.3148 C 0.0876,2.3347 0.0852,2.3429 0.0805,2.3429 C 0.0762,2.3429 0.0718,2.3347 0.0681,2.3166 L 0.0681,2.3511 C 0.0711,2.3657 0.0754,2.3728 0.0811,2.3728 C 0.089,2.3728 0.0953,2.3564 0.0953,2.3201 L 0.0953,2.238 C 0.0953,2.2319 0.0959,2.2298 0.0968,2.2298 C 0.0976,2.2298 0.0992,2.233 0.1009,2.2383 L 0.1009,2.2191 z M 0.0876,2.2888 C 0.0809,2.2796 0.0751,2.2703 0.0751,2.2515 C 0.0751,2.2383 0.0775,2.2291 0.0807,2.2291 C 0.0832,2.2291 0.0855,2.234 0.0876,2.2422 L 0.0876,2.2888"
   id="path1089"
   style="fill:#000000;fill-opacity:1;fill-rule:nonzero;stroke:none;stroke-opacity:1" />

<path
   d="M 0.1151,2.3991 C 0.1125,2.3991 0.1105,2.4076 0.1105,2.418 C 0.1105,2.4283 0.1125,2.4368 0.1151,2.4368 C 0.1176,2.4368 0.1197,2.4283 0.1197,2.418 C 0.1197,2.4076 0.1176,2.3991 0.1151,2.3991 z M 0.1189,2.2099 L 0.1112,2.2099 L 0.1112,2.3696 L 0.1189,2.3696 L 0.1189,2.2099"
   id="path1091"
   style="fill:#000000;fill-opacity:1;fill-rule:nonzero;stroke:none;stroke-opacity:1" />

<path
   d="M 0.1561,2.3283 C 0.1517,2.34 0.1476,2.345 0.1447,2.345 C 0.1416,2.345 0.1395,2.339 0.1395,2.3305 C 0.1395,2.3234 0.1422,2.3148 0.1491,2.2984 C 0.1555,2.281 0.1579,2.27 0.1579,2.2536 C 0.1579,2.2255 0.1524,2.2067 0.145,2.2067 C 0.1402,2.2067 0.1364,2.2106 0.1313,2.2213 L 0.1313,2.2554 C 0.1364,2.2412 0.141,2.2344 0.1442,2.2344 C 0.1473,2.2351 0.1499,2.2412 0.1499,2.2525 C 0.1499,2.2746 0.1316,2.2863 0.1316,2.3294 C 0.1316,2.3564 0.1367,2.3728 0.1445,2.3728 C 0.1482,2.3728 0.152,2.3685 0.1561,2.3596 L 0.1561,2.3283"
   id="path1093"
   style="fill:#000000;fill-opacity:1;fill-rule:nonzero;stroke:none;stroke-opacity:1" />

<path
   d="M 0.2178,2.4215 C 0.2165,2.4236 0.2157,2.4243 0.2143,2.4243 C 0.2081,2.4243 0.206,2.4094 0.206,2.3849 L 0.206,2.3696 L 0.2131,2.3696 L 0.2131,2.3411 L 0.206,2.3411 L 0.206,2.2099 L 0.1983,2.2099 L 0.1983,2.3411 L 0.1928,2.3411 L 0.1928,2.3696 L 0.1983,2.3696 L 0.1983,2.3813 C 0.1983,2.4126 0.2001,2.4276 0.2033,2.4404 C 0.2066,2.4539 0.211,2.4603 0.2178,2.4525 L 0.2178,2.4215"
   id="path1095"
   style="fill:#000000;fill-opacity:1;fill-rule:nonzero;stroke:none;stroke-opacity:1" />

<path
   d="M 0.2612,2.2913 C 0.2612,2.2408 0.2526,2.2067 0.24,2.2067 C 0.2279,2.2067 0.2193,2.2422 0.2193,2.2913 C 0.2193,2.3372 0.2283,2.3728 0.24,2.3728 C 0.2523,2.3728 0.2612,2.3386 0.2612,2.2913 z M 0.2272,2.2913 C 0.2272,2.2575 0.2324,2.2351 0.2399,2.2351 C 0.2481,2.2351 0.2533,2.2565 0.2533,2.291 C 0.2533,2.3219 0.2477,2.3443 0.2399,2.3443 C 0.2325,2.3443 0.2272,2.3219 0.2272,2.2913"
   id="path1097"
   style="fill:#000000;fill-opacity:1;fill-rule:nonzero;stroke:none;stroke-opacity:1" />

<path
   d="M 0.2813,2.3696 L 0.2813,2.3329 L 0.2815,2.3329 C 0.2854,2.361 0.2892,2.3728 0.2928,2.3728 C 0.296,2.3728 0.299,2.3667 0.3022,2.3543 L 0.2981,2.3269 C 0.2957,2.3361 0.2927,2.3425 0.2908,2.3425 C 0.2855,2.3425 0.2813,2.3208 0.2813,2.2935 L 0.2813,2.2099 L 0.2735,2.2099 L 0.2735,2.3696 L 0.2813,2.3696"
   id="path1099"
   style="fill:#000000;fill-opacity:1;fill-rule:nonzero;stroke:none;stroke-opacity:1" />

<path
   d="M 0.3405,2.2159 C 0.3378,2.2109 0.3329,2.2067 0.3281,2.2067 L 0.3277,2.2017 C 0.3306,2.1985 0.3324,2.1903 0.3324,2.1793 C 0.3324,2.1526 0.3266,2.143 0.3189,2.1476 L 0.3189,2.1672 C 0.323,2.1647 0.3262,2.1682 0.3262,2.1764 C 0.3262,2.1825 0.3245,2.1867 0.3211,2.1853 L 0.3232,2.2095 C 0.3146,2.218 0.3088,2.2476 0.3088,2.2867 C 0.3088,2.3393 0.3163,2.3728 0.3282,2.3728 C 0.3328,2.3728 0.3358,2.3685 0.3396,2.3618 L 0.3396,2.328 C 0.3351,2.34 0.3322,2.3436 0.3288,2.3436 C 0.3217,2.3436 0.3168,2.3219 0.3168,2.2895 C 0.3168,2.2565 0.322,2.2365 0.3301,2.2365 C 0.3334,2.2365 0.3365,2.2401 0.3405,2.2472 L 0.3405,2.2159"
   id="path1101"
   style="fill:#000000;fill-opacity:1;fill-rule:nonzero;stroke:none;stroke-opacity:1" />

<path
   d="M 0.3826,2.2191 C 0.379,2.2095 0.3775,2.2067 0.3751,2.2067 C 0.3717,2.2067 0.3698,2.2116 0.3691,2.223 C 0.3657,2.212 0.3621,2.2067 0.3585,2.2067 C 0.3528,2.2067 0.3489,2.2252 0.3489,2.2458 C 0.3489,2.2774 0.356,2.2871 0.3623,2.2963 L 0.3692,2.3063 L 0.3692,2.3148 C 0.3692,2.3347 0.3669,2.3429 0.3621,2.3429 C 0.3578,2.3429 0.3535,2.3347 0.3497,2.3166 L 0.3497,2.3511 C 0.3528,2.3657 0.3571,2.3728 0.3627,2.3728 C 0.3707,2.3728 0.377,2.3564 0.377,2.3201 L 0.377,2.238 C 0.377,2.2319 0.3775,2.2298 0.3785,2.2298 C 0.3793,2.2298 0.3808,2.233 0.3826,2.2383 L 0.3826,2.2191 z M 0.3692,2.2888 C 0.3626,2.2796 0.3568,2.2703 0.3568,2.2515 C 0.3568,2.2383 0.3592,2.2291 0.3624,2.2291 C 0.3648,2.2291 0.3671,2.234 0.3692,2.2422 L 0.3692,2.2888"
   id="path1103"
   style="fill:#000000;fill-opacity:1;fill-rule:nonzero;stroke:none;stroke-opacity:1" />

<path
   d="M 0.3923,2.1746 C 0.3952,2.1825 0.3962,2.2006 0.3954,2.2134 C 0.3929,2.2138 0.3911,2.2216 0.3911,2.2333 C 0.3911,2.2451 0.3933,2.2536 0.3963,2.2536 C 0.4001,2.2536 0.4025,2.2401 0.4025,2.2191 C 0.4025,2.1989 0.3992,2.1757 0.3923,2.1679 L 0.3923,2.1746"
   id="path1105"
   style="fill:#000000;fill-opacity:1;fill-rule:nonzero;stroke:none;stroke-opacity:1" />

<path
   d="M 0.4411,2.3696 L 0.4411,2.3486 C 0.4451,2.3649 0.4488,2.3728 0.4525,2.3728 C 0.4575,2.3728 0.4616,2.3628 0.4642,2.344 C 0.4676,2.3596 0.4717,2.3728 0.4773,2.3728 C 0.4853,2.3728 0.4903,2.3479 0.4903,2.3102 L 0.4903,2.2099 L 0.4826,2.2099 L 0.4826,2.3087 C 0.4826,2.3329 0.4789,2.3461 0.4744,2.3461 C 0.4719,2.3465 0.4685,2.3376 0.4657,2.3258 L 0.4657,2.2099 L 0.4579,2.2099 L 0.4579,2.3091 C 0.4579,2.3351 0.4547,2.3461 0.4508,2.3461 C 0.4469,2.3461 0.4443,2.3411 0.4411,2.3258 L 0.4411,2.2099 L 0.4333,2.2099 L 0.4333,2.3696 L 0.4411,2.3696"
   id="path1107"
   style="fill:#000000;fill-opacity:1;fill-rule:nonzero;stroke:none;stroke-opacity:1" />

<path
   d="M 0.5345,2.2191 C 0.531,2.2095 0.5295,2.2067 0.527,2.2067 C 0.5236,2.2067 0.5218,2.2116 0.5211,2.223 C 0.5177,2.212 0.5141,2.2067 0.5105,2.2067 C 0.5048,2.2067 0.5009,2.2252 0.5009,2.2458 C 0.5009,2.2774 0.508,2.2871 0.5143,2.2963 L 0.5212,2.3063 L 0.5212,2.3148 C 0.5212,2.3347 0.5188,2.3429 0.5141,2.3429 C 0.5098,2.3429 0.5054,2.3347 0.5017,2.3166 L 0.5017,2.3511 C 0.5048,2.3657 0.509,2.3728 0.5147,2.3728 C 0.5227,2.3728 0.529,2.3564 0.529,2.3201 L 0.529,2.238 C 0.529,2.2319 0.5295,2.2298 0.5304,2.2298 C 0.5312,2.2298 0.5328,2.233 0.5345,2.2383 L 0.5345,2.2191 z M 0.5212,2.2888 C 0.5145,2.2796 0.5088,2.2703 0.5088,2.2515 C 0.5088,2.2383 0.5111,2.2291 0.5144,2.2291 C 0.5168,2.2291 0.5191,2.234 0.5212,2.2422 L 0.5212,2.2888"
   id="path1109"
   style="fill:#000000;fill-opacity:1;fill-rule:nonzero;stroke:none;stroke-opacity:1" />

<path
   d="M 0.5487,2.3991 C 0.5462,2.3991 0.5441,2.4076 0.5441,2.418 C 0.5441,2.4283 0.5462,2.4368 0.5487,2.4368 C 0.5512,2.4368 0.5533,2.4283 0.5533,2.418 C 0.5533,2.4076 0.5512,2.3991 0.5487,2.3991 z M 0.5525,2.2099 L 0.5448,2.2099 L 0.5448,2.3696 L 0.5525,2.3696 L 0.5525,2.2099"
   id="path1111"
   style="fill:#000000;fill-opacity:1;fill-rule:nonzero;stroke:none;stroke-opacity:1" />

<path
   d="M 0.5897,2.3283 C 0.5853,2.34 0.5812,2.345 0.5783,2.345 C 0.5752,2.345 0.5732,2.339 0.5732,2.3305 C 0.5732,2.3234 0.5758,2.3148 0.5827,2.2984 C 0.5892,2.281 0.5915,2.27 0.5915,2.2536 C 0.5915,2.2255 0.586,2.2067 0.5786,2.2067 C 0.5738,2.2067 0.57,2.2106 0.565,2.2213 L 0.565,2.2554 C 0.57,2.2412 0.5747,2.2344 0.5778,2.2344 C 0.5809,2.2351 0.5836,2.2412 0.5836,2.2525 C 0.5836,2.2746 0.5652,2.2863 0.5652,2.3294 C 0.5652,2.3564 0.5703,2.3728 0.5782,2.3728 C 0.5818,2.3728 0.5856,2.3685 0.5897,2.3596 L 0.5897,2.3283"
   id="path1113"
   style="fill:#000000;fill-opacity:1;fill-rule:nonzero;stroke:none;stroke-opacity:1" />

<path
   d="M 0.6599,2.328 C 0.6555,2.34 0.6525,2.3436 0.6491,2.3436 C 0.642,2.3436 0.6371,2.3219 0.6371,2.2895 C 0.6371,2.2565 0.6424,2.2365 0.6504,2.2365 C 0.6537,2.2365 0.6569,2.2401 0.6608,2.2472 L 0.6608,2.2159 C 0.6582,2.2109 0.6532,2.2067 0.6491,2.2067 C 0.6374,2.2067 0.6292,2.2397 0.6292,2.2867 C 0.6292,2.3393 0.6367,2.3728 0.6486,2.3728 C 0.6531,2.3728 0.6562,2.3685 0.6599,2.3618 L 0.6599,2.328"
   id="path1115"
   style="fill:#000000;fill-opacity:1;fill-rule:nonzero;stroke:none;stroke-opacity:1" />

<path
   d="M 0.7121,2.2913 C 0.7121,2.2408 0.7035,2.2067 0.6909,2.2067 C 0.6788,2.2067 0.6702,2.2422 0.6702,2.2913 C 0.6702,2.3372 0.6792,2.3728 0.6909,2.3728 C 0.7032,2.3728 0.7121,2.3386 0.7121,2.2913 z M 0.6781,2.2913 C 0.6781,2.2575 0.6833,2.2351 0.6908,2.2351 C 0.699,2.2351 0.7042,2.2565 0.7042,2.291 C 0.7042,2.3219 0.6986,2.3443 0.6908,2.3443 C 0.6835,2.3443 0.6781,2.3219 0.6781,2.2913"
   id="path1117"
   style="fill:#000000;fill-opacity:1;fill-rule:nonzero;stroke:none;stroke-opacity:1" />

<path
   d="M 0.7315,2.3486 L 0.7317,2.3486 C 0.7347,2.3639 0.739,2.3728 0.7434,2.3728 C 0.7508,2.3728 0.7568,2.3522 0.7568,2.3084 L 0.7568,2.2099 L 0.749,2.2099 L 0.749,2.3087 C 0.749,2.3322 0.746,2.3475 0.7413,2.3475 C 0.7379,2.3475 0.7352,2.3411 0.7315,2.3244 L 0.7315,2.2099 L 0.7237,2.2099 L 0.7237,2.3696 L 0.7315,2.3696 L 0.7315,2.3486"
   id="path1119"
   style="fill:#000000;fill-opacity:1;fill-rule:nonzero;stroke:none;stroke-opacity:1" />

<path
   d="M 0.7911,2.4215 C 0.7898,2.4236 0.789,2.4243 0.7876,2.4243 C 0.7813,2.4243 0.7793,2.4094 0.7793,2.3849 L 0.7793,2.3696 L 0.7864,2.3696 L 0.7864,2.3411 L 0.7793,2.3411 L 0.7793,2.2099 L 0.7715,2.2099 L 0.7715,2.3411 L 0.766,2.3411 L 0.766,2.3696 L 0.7715,2.3696 L 0.7715,2.3813 C 0.7715,2.4126 0.7734,2.4276 0.7765,2.4404 C 0.7798,2.4539 0.7843,2.4603 0.7911,2.4525 L 0.7911,2.4215"
   id="path1121"
   style="fill:#000000;fill-opacity:1;fill-rule:nonzero;stroke:none;stroke-opacity:1" />

<path
   d="M 0.7998,2.3991 C 0.7973,2.3991 0.7952,2.4076 0.7952,2.418 C 0.7952,2.4283 0.7973,2.4368 0.7998,2.4368 C 0.8024,2.4368 0.8045,2.4283 0.8045,2.418 C 0.8045,2.4076 0.8024,2.3991 0.7998,2.3991 z M 0.8037,2.2099 L 0.7959,2.2099 L 0.7959,2.3696 L 0.8037,2.3696 L 0.8037,2.2099"
   id="path1123"
   style="fill:#000000;fill-opacity:1;fill-rule:nonzero;stroke:none;stroke-opacity:1" />

<path
   d="M 0.8484,2.2191 C 0.8448,2.2095 0.8434,2.2067 0.8409,2.2067 C 0.8375,2.2067 0.8357,2.2116 0.835,2.223 C 0.8316,2.212 0.828,2.2067 0.8244,2.2067 C 0.8186,2.2067 0.8148,2.2252 0.8148,2.2458 C 0.8148,2.2774 0.8219,2.2871 0.8282,2.2963 L 0.8351,2.3063 L 0.8351,2.3148 C 0.8351,2.3347 0.8327,2.3429 0.828,2.3429 C 0.8237,2.3429 0.8193,2.3347 0.8156,2.3166 L 0.8156,2.3511 C 0.8186,2.3657 0.8229,2.3728 0.8286,2.3728 C 0.8365,2.3728 0.8428,2.3564 0.8428,2.3201 L 0.8428,2.238 C 0.8428,2.2319 0.8434,2.2298 0.8443,2.2298 C 0.8451,2.2298 0.8467,2.233 0.8484,2.2383 L 0.8484,2.2191 z M 0.8351,2.2888 C 0.8284,2.2796 0.8226,2.2703 0.8226,2.2515 C 0.8226,2.2383 0.825,2.2291 0.8282,2.2291 C 0.8307,2.2291 0.833,2.234 0.8351,2.2422 L 0.8351,2.2888"
   id="path1125"
   style="fill:#000000;fill-opacity:1;fill-rule:nonzero;stroke:none;stroke-opacity:1" />

<path
   d="M 0.8661,2.3486 L 0.8663,2.3486 C 0.8692,2.3639 0.8736,2.3728 0.878,2.3728 C 0.8854,2.3728 0.8913,2.3522 0.8913,2.3084 L 0.8913,2.2099 L 0.8836,2.2099 L 0.8836,2.3087 C 0.8836,2.3322 0.8806,2.3475 0.8759,2.3475 C 0.8725,2.3475 0.8697,2.3411 0.8661,2.3244 L 0.8661,2.2099 L 0.8583,2.2099 L 0.8583,2.3696 L 0.8661,2.3696 L 0.8661,2.3486"
   id="path1127"
   style="fill:#000000;fill-opacity:1;fill-rule:nonzero;stroke:none;stroke-opacity:1" />

<path
   d="M 0.935,2.2159 C 0.9324,2.2109 0.9274,2.2067 0.9226,2.2067 L 0.9223,2.2017 C 0.9251,2.1985 0.927,2.1903 0.927,2.1793 C 0.927,2.1526 0.9211,2.143 0.9134,2.1476 L 0.9134,2.1672 C 0.9175,2.1647 0.9208,2.1682 0.9208,2.1764 C 0.9208,2.1825 0.919,2.1867 0.9157,2.1853 L 0.9178,2.2095 C 0.9092,2.218 0.9034,2.2476 0.9034,2.2867 C 0.9034,2.3393 0.9109,2.3728 0.9228,2.3728 C 0.9273,2.3728 0.9304,2.3685 0.9341,2.3618 L 0.9341,2.328 C 0.9297,2.34 0.9267,2.3436 0.9233,2.3436 C 0.9162,2.3436 0.9113,2.3219 0.9113,2.2895 C 0.9113,2.2565 0.9166,2.2365 0.9246,2.2365 C 0.9279,2.2365 0.9311,2.2401 0.935,2.2472 L 0.935,2.2159"
   id="path1129"
   style="fill:#000000;fill-opacity:1;fill-rule:nonzero;stroke:none;stroke-opacity:1" />

<path
   d="M 0.9771,2.2191 C 0.9736,2.2095 0.9721,2.2067 0.9696,2.2067 C 0.9662,2.2067 0.9644,2.2116 0.9637,2.223 C 0.9603,2.212 0.9567,2.2067 0.9531,2.2067 C 0.9473,2.2067 0.9435,2.2252 0.9435,2.2458 C 0.9435,2.2774 0.9506,2.2871 0.9569,2.2963 L 0.9638,2.3063 L 0.9638,2.3148 C 0.9638,2.3347 0.9614,2.3429 0.9567,2.3429 C 0.9524,2.3429 0.948,2.3347 0.9443,2.3166 L 0.9443,2.3511 C 0.9473,2.3657 0.9516,2.3728 0.9573,2.3728 C 0.9653,2.3728 0.9715,2.3564 0.9715,2.3201 L 0.9715,2.238 C 0.9715,2.2319 0.9721,2.2298 0.973,2.2298 C 0.9738,2.2298 0.9754,2.233 0.9771,2.2383 L 0.9771,2.2191 z M 0.9638,2.2888 C 0.9571,2.2796 0.9514,2.2703 0.9514,2.2515 C 0.9514,2.2383 0.9537,2.2291 0.957,2.2291 C 0.9594,2.2291 0.9617,2.234 0.9638,2.2422 L 0.9638,2.2888"
   id="path1131"
   style="fill:#000000;fill-opacity:1;fill-rule:nonzero;stroke:none;stroke-opacity:1" />

<path
   d="M 0.9965,2.228 C 0.9965,2.2163 0.9941,2.2067 0.9912,2.2067 C 0.9883,2.2067 0.986,2.2163 0.986,2.228 C 0.986,2.2397 0.9883,2.2493 0.9912,2.2493 C 0.9941,2.2493 0.9965,2.2397 0.9965,2.228"
   id="path1133"
   style="fill:#000000;fill-opacity:1;fill-rule:nonzero;stroke:none;stroke-opacity:1" />

</g>

</g>

</g>

</g>

</g>
</g>

</g>
  </g>
</svg>
